RedHatText-Regular.ufo
<glyph name="exclam" format="2">
  <advance width="222"/>
  <unicode hex="0021"/>
  <outline>
    <contour>
      <point x="82" y="205" type="line"/>
      <point x="139" y="205" type="line"/>
      <point x="148" y="727" type="line"/>
      <point x="73" y="727" type="line"/>
    </contour>
    <contour>
      <point x="111" y="-8" type="curve" smooth="yes"/>
      <point x="140" y="-8"/>
      <point x="164" y="15"/>
      <point x="164" y="45" type="curve" smooth="yes"/>
      <point x="164" y="75"/>
      <point x="140" y="98"/>
      <point x="111" y="98" type="curve" smooth="yes"/>
      <point x="82" y="98"/>
      <point x="58" y="75"/>
      <point x="58" y="45" type="curve" smooth="yes"/>
      <point x="58" y="15"/>
      <point x="82" y="-8"/>
    </contour>
  </outline>
</glyph>
<glyph name="numbersign" format="2">
  <advance width="690"/>
  <unicode hex="0023"/>
  <outline>
    <contour>
      <point x="66" y="0" type="line"/>
      <point x="132" y="0" type="line"/>
      <point x="207" y="219" type="line"/>
      <point x="394" y="219" type="line"/>
      <point x="319" y="0" type="line"/>
      <point x="385" y="0" type="line"/>
      <point x="460" y="219" type="line"/>
      <point x="598" y="219" type="line"/>
      <point x="598" y="277" type="line"/>
      <point x="480" y="277" type="line"/>
      <point x="530" y="423" type="line"/>
      <point x="646" y="423" type="line"/>
      <point x="646" y="481" type="line"/>
      <point x="550" y="481" type="line"/>
      <point x="625" y="700" type="line"/>
      <point x="559" y="700" type="line"/>
      <point x="484" y="481" type="line"/>
      <point x="297" y="481" type="line"/>
      <point x="372" y="700" type="line"/>
      <point x="306" y="700" type="line"/>
      <point x="231" y="481" type="line"/>
      <point x="92" y="481" type="line"/>
      <point x="92" y="423" type="line"/>
      <point x="211" y="423" type="line"/>
      <point x="161" y="277" type="line"/>
      <point x="44" y="277" type="line"/>
      <point x="44" y="219" type="line"/>
      <point x="141" y="219" type="line"/>
    </contour>
    <contour>
      <point x="227" y="277" type="line"/>
      <point x="277" y="423" type="line"/>
      <point x="464" y="423" type="line"/>
      <point x="414" y="277" type="line"/>
    </contour>
  </outline>
</glyph>
<glyph name="hyphen" format="2">
  <advance width="455"/>
  <unicode hex="002D"/>
  <outline>
    <contour>
      <point x="61" y="250" type="line"/>
      <point x="394" y="250" type="line"/>
      <point x="394" y="313" type="line"/>
      <point x="61" y="313" type="line"/>
    </contour>
  </outline>
</glyph>
<glyph name="period" format="2">
  <advance width="250"/>
  <unicode hex="002E"/>
  <outline>
    <contour>
      <point x="125" y="-8" type="curve" smooth="yes"/>
      <point x="154" y="-8"/>
      <point x="178" y="16"/>
      <point x="178" y="46" type="curve" smooth="yes"/>
      <point x="178" y="76"/>
      <point x="154" y="100"/>
      <point x="125" y="100" type="curve" smooth="yes"/>
      <point x="96" y="100"/>
      <point x="72" y="76"/>
      <point x="72" y="46" type="curve" smooth="yes"/>
      <point x="72" y="16"/>
      <point x="96" y="-8"/>
    </contour>
  </outline>
</glyph>
<glyph name="slash" format="2">
  <advance width="466"/>
  <unicode hex="002F"/>
  <outline>
    <contour>
      <point x="-48" y="-209" type="line"/>
      <point x="24" y="-209" type="line"/>
      <point x="424" y="700" type="line"/>
      <point x="351" y="700" type="line"/>
    </contour>
  </outline>
</glyph>
<glyph name="zero" format="2">
  <advance width="660"/>
  <unicode hex="0030"/>
  <outline>
    <contour>
      <point x="330" y="-11" type="curve" smooth="yes"/>
      <point x="490" y="-11"/>
      <point x="603" y="137"/>
      <point x="603" y="350" type="curve" smooth="yes"/>
      <point x="603" y="563"/>
      <point x="490" y="711"/>
      <point x="330" y="711" type="curve" smooth="yes"/>
      <point x="170" y="711"/>
      <point x="57" y="563"/>
      <point x="57" y="350" type="curve" smooth="yes"/>
      <point x="57" y="137"/>
      <point x="170" y="-11"/>
    </contour>
    <contour>
      <point x="330" y="54" type="curve" smooth="yes"/>
      <point x="209" y="54"/>
      <point x="130" y="170"/>
      <point x="130" y="350" type="curve" smooth="yes"/>
      <point x="130" y="530"/>
      <point x="209" y="646"/>
      <point x="330" y="646" type="curve" smooth="yes"/>
      <point x="451" y="646"/>
      <point x="530" y="530"/>
      <point x="530" y="350" type="curve" smooth="yes"/>
      <point x="530" y="170"/>
      <point x="451" y="54"/>
    </contour>
  </outline>
</glyph>
<glyph name="one" format="2">
  <advance width="307"/>
  <unicode hex="0031"/>
  <outline>
    <contour>
      <point x="153" y="0" type="line"/>
      <point x="225" y="0" type="line"/>
      <point x="225" y="700" type="line"/>
      <point x="180" y="700" type="line"/>
      <point x="41" y="638" type="line"/>
      <point x="41" y="572" type="line"/>
      <point x="153" y="622" type="line"/>
    </contour>
  </outline>
</glyph>
<glyph name="four" format="2">
  <advance width="618"/>
  <unicode hex="0034"/>
  <outline>
    <contour>
      <point x="417" y="0" type="line"/>
      <point x="488" y="0" type="line"/>
      <point x="488" y="187" type="line"/>
      <point x="585" y="187" type="line"/>
      <point x="585" y="250" type="line"/>
      <point x="488" y="250" type="line"/>
      <point x="488" y="700" type="line"/>
      <point x="411" y="700" type="line"/>
      <point x="39" y="244" type="line"/>
      <point x="39" y="187" type="line"/>
      <point x="417" y="187" type="line"/>
    </contour>
    <contour>
      <point x="123" y="250" type="line"/>
      <point x="417" y="613" type="line"/>
      <point x="417" y="250" type="line"/>
    </contour>
  </outline>
</glyph>
<glyph name="A" format="2">
  <advance width="660"/>
  <unicode hex="0041"/>
  <guideline x="332" y="700" angle="0.0" identifier="YDYe6DKRnZ"/>
  <anchor x="332" y="700" name="top"/>
  <anchor x="651" y="0" name="bottom"/>
  <outline>
    <contour>
      <point x="9" y="0" type="line"/>
      <point x="90" y="0" type="line"/>
      <point x="173" y="220" type="line"/>
      <point x="485" y="220" type="line"/>
      <point x="568" y="0" type="line"/>
      <point x="651" y="0" type="line"/>
      <point x="378" y="700" type="line"/>
      <point x="286" y="700" type="line"/>
    </contour>
    <contour>
      <point x="197" y="281" type="line"/>
      <point x="329" y="630" type="line"/>
      <point x="462" y="281" type="line"/>
    </contour>
  </outline>
</glyph>
<glyph name="D" format="2">
  <advance width="728"/>
  <unicode hex="0044"/>
  <anchor x="354" y="700" name="top"/>
  <outline>
    <contour>
      <point x="166" y="69" type="line"/>
      <point x="166" y="631" type="line"/>
      <point x="326" y="631" type="line" smooth="yes"/>
      <point x="477" y="631"/>
      <point x="593" y="510"/>
      <point x="593" y="350" type="curve" smooth="yes"/>
      <point x="593" y="190"/>
      <point x="477" y="69"/>
      <point x="326" y="69" type="curve" smooth="yes"/>
    </contour>
    <contour>
      <point x="89" y="0" type="line"/>
      <point x="321" y="0" type="line" smooth="yes"/>
      <point x="527" y="0"/>
      <point x="671" y="151"/>
      <point x="671" y="350" type="curve" smooth="yes"/>
      <point x="671" y="549"/>
      <point x="527" y="700"/>
      <point x="321" y="700" type="curve" smooth="yes"/>
      <point x="89" y="700" type="line"/>
    </contour>
  </outline>
</glyph>
<glyph name="E" format="2">
  <advance width="619"/>
  <unicode hex="0045"/>
  <guideline x="328" y="700" angle="0.0" identifier="A1odUCKNQQ"/>
  <anchor x="329" y="700" name="top"/>
  <anchor x="571" y="0" name="bottom"/>
  <outline>
    <contour>
      <point x="89" y="0" type="line"/>
      <point x="571" y="0" type="line"/>
      <point x="571" y="68" type="line"/>
      <point x="166" y="68" type="line"/>
      <point x="166" y="320" type="line"/>
      <point x="444" y="320" type="line"/>
      <point x="444" y="387" type="line"/>
      <point x="166" y="387" type="line"/>
      <point x="166" y="632" type="line"/>
      <point x="567" y="632" type="line"/>
      <point x="567" y="700" type="line"/>
      <point x="89" y="700" type="line"/>
    </contour>
  </outline>
</glyph>
<glyph name="F" format="2">
  <advance width="610"/>
  <unicode hex="0046"/>
  <outline>
    <contour>
      <point x="89" y="0" type="line"/>
      <point x="166" y="0" type="line"/>
      <point x="166" y="315" type="line"/>
      <point x="440" y="315" type="line"/>
      <point x="440" y="382" type="line"/>
      <point x="166" y="382" type="line"/>
      <point x="166" y="632" type="line"/>
      <point x="567" y="632" type="line"/>
      <point x="567" y="700" type="line"/>
      <point x="89" y="700" type="line"/>
    </contour>
  </outline>
</glyph>
<glyph name="G" format="2">
  <advance width="799"/>
  <unicode hex="0047"/>
  <anchor x="409" y="700" name="top"/>
  <anchor x="414" y="0" name="bottom"/>
  <outline>
    <contour>
      <point x="410" y="-11" type="curve" smooth="yes"/>
      <point x="600" y="-11"/>
      <point x="744" y="141"/>
      <point x="744" y="335" type="curve" smooth="yes"/>
      <point x="744" y="366" type="line"/>
      <point x="430" y="366" type="line"/>
      <point x="430" y="298" type="line"/>
      <point x="666" y="298" type="line"/>
      <point x="654" y="161"/>
      <point x="549" y="59"/>
      <point x="410" y="59" type="curve" smooth="yes"/>
      <point x="253" y="59"/>
      <point x="134" y="187"/>
      <point x="134" y="350" type="curve" smooth="yes"/>
      <point x="134" y="513"/>
      <point x="253" y="641"/>
      <point x="410" y="641" type="curve" smooth="yes"/>
      <point x="495" y="641"/>
      <point x="579" y="606"/>
      <point x="631" y="544" type="curve"/>
      <point x="683" y="596" type="line"/>
      <point x="616" y="672"/>
      <point x="516" y="711"/>
      <point x="410" y="711" type="curve" smooth="yes"/>
      <point x="211" y="711"/>
      <point x="56" y="551"/>
      <point x="56" y="350" type="curve" smooth="yes"/>
      <point x="56" y="149"/>
      <point x="211" y="-11"/>
    </contour>
  </outline>
</glyph>
<glyph name="I" format="2">
  <advance width="253"/>
  <unicode hex="0049"/>
  <anchor x="126" y="700" name="top"/>
  <anchor x="165" y="0" name="bottom"/>
  <outline>
    <contour>
      <point x="88" y="0" type="line"/>
      <point x="165" y="0" type="line"/>
      <point x="165" y="700" type="line"/>
      <point x="88" y="700" type="line"/>
    </contour>
  </outline>
</glyph>
<glyph name="J" format="2">
  <advance width="600"/>
  <unicode hex="004A"/>
  <anchor x="486" y="700" name="top"/>
  <outline>
    <contour>
      <point x="267" y="-11" type="curve" smooth="yes"/>
      <point x="425" y="-11"/>
      <point x="525" y="95"/>
      <point x="525" y="264" type="curve" smooth="yes"/>
      <point x="525" y="700" type="line"/>
      <point x="448" y="700" type="line"/>
      <point x="448" y="265" type="line" smooth="yes"/>
      <point x="448" y="139"/>
      <point x="377" y="59"/>
      <point x="268" y="59" type="curve" smooth="yes"/>
      <point x="181" y="59"/>
      <point x="121" y="106"/>
      <point x="88" y="196" type="curve"/>
      <point x="18" y="168" type="line"/>
      <point x="57" y="55"/>
      <point x="148" y="-11"/>
    </contour>
  </outline>
</glyph>
<glyph name="N" format="2">
  <advance width="739"/>
  <unicode hex="004E"/>
  <anchor x="373" y="700" name="top"/>
  <anchor x="373" y="0" name="bottom"/>
  <outline>
    <contour>
      <point x="89" y="0" type="line"/>
      <point x="162" y="0" type="line"/>
      <point x="160" y="593" type="line"/>
      <point x="580" y="0" type="line"/>
      <point x="650" y="0" type="line"/>
      <point x="650" y="700" type="line"/>
      <point x="577" y="700" type="line"/>
      <point x="579" y="120" type="line"/>
      <point x="169" y="700" type="line"/>
      <point x="89" y="700" type="line"/>
    </contour>
  </outline>
</glyph>
<glyph name="P" format="2">
  <advance width="654"/>
  <unicode hex="0050"/>
  <outline>
    <contour>
      <point x="89" y="0" type="line"/>
      <point x="166" y="0" type="line"/>
      <point x="166" y="286" type="line"/>
      <point x="378" y="286" type="line" smooth="yes"/>
      <point x="514" y="286"/>
      <point x="601" y="368"/>
      <point x="601" y="493" type="curve" smooth="yes"/>
      <point x="601" y="618"/>
      <point x="514" y="700"/>
      <point x="378" y="700" type="curve" smooth="yes"/>
      <point x="89" y="700" type="line"/>
    </contour>
    <contour>
      <point x="166" y="352" type="line"/>
      <point x="166" y="632" type="line"/>
      <point x="369" y="632" type="line" smooth="yes"/>
      <point x="466" y="632"/>
      <point x="524" y="579"/>
      <point x="524" y="493" type="curve" smooth="yes"/>
      <point x="524" y="406"/>
      <point x="466" y="352"/>
      <point x="369" y="352" type="curve" smooth="yes"/>
    </contour>
  </outline>
</glyph>
<glyph name="R" format="2">
  <advance width="647"/>
  <unicode hex="0052"/>
  <anchor x="325" y="700" name="top"/>
  <anchor x="325" y="0" name="bottom"/>
  <outline>
    <contour>
      <point x="89" y="0" type="line"/>
      <point x="166" y="0" type="line"/>
      <point x="166" y="299" type="line"/>
      <point x="375" y="299" type="line"/>
      <point x="517" y="0" type="line"/>
      <point x="602" y="0" type="line"/>
      <point x="453" y="309" type="line"/>
      <point x="543" y="335"/>
      <point x="599" y="405"/>
      <point x="599" y="498" type="curve" smooth="yes"/>
      <point x="599" y="619"/>
      <point x="510" y="700"/>
      <point x="376" y="700" type="curve" smooth="yes"/>
      <point x="89" y="700" type="line"/>
    </contour>
    <contour>
      <point x="166" y="363" type="line"/>
      <point x="166" y="632" type="line"/>
      <point x="370" y="632" type="line" smooth="yes"/>
      <point x="462" y="632"/>
      <point x="522" y="579"/>
      <point x="522" y="497" type="curve" smooth="yes"/>
      <point x="522" y="416"/>
      <point x="462" y="363"/>
      <point x="370" y="363" type="curve" smooth="yes"/>
    </contour>
  </outline>
</glyph>
<glyph name="S" format="2">
  <advance width="623"/>
  <unicode hex="0053"/>
  <note>
Version created Fri Aug  3 17:49:29 2018
</note>
  <anchor x="290" y="702" name="top"/>
  <anchor x="314" y="2" name="bottom"/>
  <outline>
    <contour>
      <point x="315" y="-11" type="curve"/>
      <point x="469" y="-11"/>
      <point x="581" y="79"/>
      <point x="581" y="201" type="curve"/>
      <point x="581" y="306"/>
      <point x="517" y="362"/>
      <point x="368" y="389" type="curve" smooth="yes"/>
      <point x="256" y="408" type="line" smooth="yes"/>
      <point x="162" y="423"/>
      <point x="124" y="455"/>
      <point x="124" y="517" type="curve" smooth="yes"/>
      <point x="124" y="590"/>
      <point x="193" y="646"/>
      <point x="291" y="646" type="curve" smooth="yes"/>
      <point x="373" y="646"/>
      <point x="455" y="616"/>
      <point x="527" y="562" type="curve"/>
      <point x="567" y="622" type="line"/>
      <point x="480" y="683"/>
      <point x="394" y="711"/>
      <point x="290" y="711" type="curve"/>
      <point x="148" y="711"/>
      <point x="50" y="627"/>
      <point x="50" y="509" type="curve"/>
      <point x="50" y="415"/>
      <point x="107" y="362"/>
      <point x="235" y="339" type="curve" smooth="yes"/>
      <point x="348" y="320" type="line" smooth="yes"/>
      <point x="462" y="300"/>
      <point x="504" y="267"/>
      <point x="504" y="197" type="curve" smooth="yes"/>
      <point x="504" y="115"/>
      <point x="425" y="55"/>
      <point x="317" y="55" type="curve" smooth="yes"/>
      <point x="226" y="55"/>
      <point x="159" y="85"/>
      <point x="75" y="164" type="curve"/>
      <point x="28" y="108" type="line"/>
      <point x="114" y="28"/>
      <point x="205" y="-11"/>
    </contour>
  </outline>
</glyph>
<glyph name="T" format="2">
  <advance width="617"/>
  <unicode hex="0054"/>
  <anchor x="308" y="700" name="top"/>
  <anchor x="308" y="0" name="bottom"/>
  <outline>
    <contour>
      <point x="270" y="0" type="line"/>
      <point x="347" y="0" type="line"/>
      <point x="347" y="632" type="line"/>
      <point x="589" y="632" type="line"/>
      <point x="589" y="700" type="line"/>
      <point x="28" y="700" type="line"/>
      <point x="28" y="632" type="line"/>
      <point x="270" y="632" type="line"/>
    </contour>
  </outline>
</glyph>
<glyph name="Y" format="2">
  <advance width="646"/>
  <unicode hex="0059"/>
  <guideline x="325" y="700" angle="0.0" identifier="qb5EYBX0Za"/>
  <anchor x="326" y="700" name="top"/>
  <outline>
    <contour>
      <point x="284" y="0" type="line"/>
      <point x="361" y="0" type="line"/>
      <point x="361" y="284" type="line"/>
      <point x="634" y="700" type="line"/>
      <point x="549" y="700" type="line"/>
      <point x="325" y="353" type="line"/>
      <point x="102" y="700" type="line"/>
      <point x="12" y="700" type="line"/>
      <point x="284" y="286" type="line"/>
    </contour>
  </outline>
</glyph>
<glyph name="bracketleft" format="2">
  <advance width="361"/>
  <unicode hex="005B"/>
  <outline>
    <contour>
      <point x="69" y="-215" type="line"/>
      <point x="310" y="-215" type="line"/>
      <point x="310" y="-155" type="line"/>
      <point x="139" y="-155" type="line"/>
      <point x="139" y="640" type="line"/>
      <point x="310" y="640" type="line" smooth="yes"/>
      <point x="310" y="700" type="line"/>
      <point x="69" y="700" type="line"/>
    </contour>
  </outline>
</glyph>
<glyph name="grave" format="2">
  <advance width="600"/>
  <unicode hex="0060"/>
  <outline>
    <contour>
      <point x="294" y="584" type="line"/>
      <point x="365" y="584" type="line"/>
      <point x="253" y="706" type="line"/>
      <point x="150" y="706" type="line"/>
    </contour>
  </outline>
</glyph>
<glyph name="a" format="2">
  <advance width="526"/>
  <unicode hex="0061"/>
  <note>
Version created Mon Aug  6 16:22:34 2018
</note>
  <anchor x="264" y="488" name="top"/>
  <anchor x="453" y="0" name="bottom"/>
  <outline>
    <contour>
      <point x="226" y="-9" type="curve" smooth="yes"/>
      <point x="286" y="-9"/>
      <point x="338" y="13"/>
      <point x="381" y="57" type="curve"/>
      <point x="381" y="0" type="line"/>
      <point x="453" y="0" type="line"/>
      <point x="453" y="324" type="line" smooth="yes"/>
      <point x="453" y="435"/>
      <point x="385" y="496"/>
      <point x="264" y="496" type="curve" smooth="yes"/>
      <point x="205" y="496"/>
      <point x="147" y="481"/>
      <point x="80" y="449" type="curve"/>
      <point x="107" y="393" type="line"/>
      <point x="164" y="422"/>
      <point x="210" y="435"/>
      <point x="255" y="435" type="curve" smooth="yes"/>
      <point x="338" y="435"/>
      <point x="381" y="394"/>
      <point x="381" y="314" type="curve" smooth="yes"/>
      <point x="381" y="247" type="line"/>
      <point x="338" y="273"/>
      <point x="288" y="285"/>
      <point x="232" y="285" type="curve" smooth="yes"/>
      <point x="122" y="285"/>
      <point x="49" y="227"/>
      <point x="49" y="140" type="curve" smooth="yes"/>
      <point x="49" y="52"/>
      <point x="122" y="-9"/>
    </contour>
    <contour>
      <point x="119" y="142" type="curve" smooth="yes"/>
      <point x="119" y="196"/>
      <point x="168" y="232"/>
      <point x="243" y="232" type="curve" smooth="yes"/>
      <point x="298" y="232"/>
      <point x="340" y="221"/>
      <point x="381" y="197" type="curve"/>
      <point x="381" y="103" type="line"/>
      <point x="341" y="65"/>
      <point x="296" y="47"/>
      <point x="241" y="47" type="curve" smooth="yes"/>
      <point x="168" y="47"/>
      <point x="119" y="85"/>
    </contour>
  </outline>
</glyph>
<glyph name="e" format="2">
  <advance width="557"/>
  <unicode hex="0065"/>
  <anchor x="287" y="488" name="top"/>
  <anchor x="371" y="0" name="bottom"/>
  <outline>
    <contour>
      <point x="295" y="-10" type="curve" smooth="yes"/>
      <point x="363" y="-10"/>
      <point x="422" y="11"/>
      <point x="478" y="55" type="curve"/>
      <point x="432" y="104" type="line"/>
      <point x="399" y="73"/>
      <point x="349" y="54"/>
      <point x="298" y="54" type="curve" smooth="yes"/>
      <point x="205" y="54"/>
      <point x="131" y="128"/>
      <point x="124" y="228" type="curve"/>
      <point x="507" y="228" type="line"/>
      <point x="507" y="250" type="line" smooth="yes"/>
      <point x="507" y="390"/>
      <point x="411" y="496"/>
      <point x="283" y="496" type="curve" smooth="yes"/>
      <point x="153" y="496"/>
      <point x="53" y="387"/>
      <point x="53" y="244" type="curve" smooth="yes"/>
      <point x="53" y="100"/>
      <point x="158" y="-10"/>
    </contour>
    <contour>
      <point x="126" y="280" type="line"/>
      <point x="139" y="370"/>
      <point x="201" y="433"/>
      <point x="282" y="433" type="curve" smooth="yes"/>
      <point x="362" y="433"/>
      <point x="424" y="368"/>
      <point x="435" y="280" type="curve"/>
    </contour>
  </outline>
</glyph>
<glyph name="i" format="2">
  <advance width="222"/>
  <unicode hex="0069"/>
  <anchor x="111" y="488" name="top"/>
  <anchor x="147" y="0" name="bottom"/>
  <outline>
    <contour>
      <point x="74" y="0" type="line"/>
      <point x="147" y="0" type="line"/>
      <point x="147" y="488" type="line"/>
      <point x="74" y="488" type="line"/>
    </contour>
    <contour>
      <point x="111" y="609" type="curve" smooth="yes"/>
      <point x="140" y="609"/>
      <point x="164" y="633"/>
      <point x="164" y="661" type="curve" smooth="yes"/>
      <point x="164" y="689"/>
      <point x="140" y="713"/>
      <point x="111" y="713" type="curve" smooth="yes"/>
      <point x="82" y="713"/>
      <point x="58" y="689"/>
      <point x="58" y="661" type="curve" smooth="yes"/>
      <point x="58" y="633"/>
      <point x="82" y="609"/>
    </contour>
  </outline>
</glyph>
<glyph name="k" format="2">
  <advance width="489"/>
  <unicode hex="006B"/>
  <anchor x="242" y="0" name="bottom"/>
  <outline>
    <contour>
      <point x="75" y="0" type="line"/>
      <point x="148" y="0" type="line"/>
      <point x="148" y="233" type="line"/>
      <point x="383" y="0" type="line"/>
      <point x="479" y="0" type="line"/>
      <point x="220" y="256" type="line"/>
      <point x="468" y="488" type="line"/>
      <point x="380" y="488" type="line"/>
      <point x="148" y="269" type="line"/>
      <point x="148" y="737" type="line"/>
      <point x="75" y="722" type="line"/>
    </contour>
  </outline>
</glyph>
<glyph name="r" format="2">
  <advance width="352"/>
  <unicode hex="0072"/>
  <guideline x="111" y="0" angle="0.0" identifier="htCJGl3CO7"/>
  <anchor x="186" y="488" name="top"/>
  <anchor x="113" y="0" name="bottom"/>
  <outline>
    <contour>
      <point x="75" y="0" type="line"/>
      <point x="148" y="0" type="line"/>
      <point x="148" y="333" type="line"/>
      <point x="173" y="396"/>
      <point x="219" y="432"/>
      <point x="279" y="432" type="curve" smooth="yes"/>
      <point x="295" y="432"/>
      <point x="314" y="428"/>
      <point x="330" y="423" type="curve"/>
      <point x="330" y="489" type="line"/>
      <point x="315" y="494"/>
      <point x="301" y="496"/>
      <point x="284" y="496" type="curve" smooth="yes"/>
      <point x="222" y="496"/>
      <point x="173" y="456"/>
      <point x="148" y="388" type="curve"/>
      <point x="148" y="488" type="line"/>
      <point x="75" y="488" type="line"/>
    </contour>
  </outline>
</glyph>
<glyph name="u" format="2">
  <advance width="552"/>
  <unicode hex="0075"/>
  <anchor x="276" y="488" name="top"/>
  <anchor x="477" y="0" name="bottom"/>
  <outline>
    <contour>
      <point x="249" y="-8" type="curve" smooth="yes"/>
      <point x="315" y="-8"/>
      <point x="367" y="21"/>
      <point x="404" y="79" type="curve"/>
      <point x="404" y="0" type="line"/>
      <point x="477" y="0" type="line"/>
      <point x="477" y="488" type="line"/>
      <point x="404" y="488" type="line"/>
      <point x="404" y="127" type="line"/>
      <point x="375" y="79"/>
      <point x="330" y="53"/>
      <point x="276" y="53" type="curve" smooth="yes"/>
      <point x="196" y="53"/>
      <point x="146" y="107"/>
      <point x="146" y="194" type="curve" smooth="yes"/>
      <point x="146" y="488" type="line"/>
      <point x="72" y="488" type="line"/>
      <point x="72" y="173" type="line" smooth="yes"/>
      <point x="72" y="66"/>
      <point x="144" y="-8"/>
    </contour>
  </outline>
</glyph>
<glyph name="w" format="2">
  <advance width="698"/>
  <unicode hex="0077"/>
  <guideline x="350" y="488" angle="0.0" identifier="xcLKGF53Pu"/>
  <anchor x="350" y="488" name="top"/>
  <outline>
    <contour>
      <point x="162" y="0" type="line"/>
      <point x="234" y="0" type="line"/>
      <point x="350" y="394" type="line"/>
      <point x="466" y="0" type="line"/>
      <point x="537" y="0" type="line"/>
      <point x="670" y="488" type="line"/>
      <point x="601" y="488" type="line"/>
      <point x="500" y="98" type="line"/>
      <point x="383" y="488" type="line"/>
      <point x="318" y="488" type="line"/>
      <point x="201" y="98" type="line"/>
      <point x="99" y="488" type="line"/>
      <point x="28" y="488" type="line"/>
    </contour>
  </outline>
</glyph>
<glyph name="y" format="2">
  <advance width="498"/>
  <unicode hex="0079"/>
  <anchor x="249" y="488" name="top"/>
  <outline>
    <contour>
      <point x="96" y="-219" type="curve" smooth="yes"/>
      <point x="168" y="-219"/>
      <point x="203" y="-190"/>
      <point x="236" y="-111" type="curve" smooth="yes"/>
      <point x="482" y="488" type="line"/>
      <point x="401" y="488" type="line"/>
      <point x="244" y="87" type="line"/>
      <point x="96" y="488" type="line"/>
      <point x="15" y="488" type="line"/>
      <point x="203" y="0" type="line"/>
      <point x="167" y="-89" type="line" smooth="yes"/>
      <point x="149" y="-132"/>
      <point x="126" y="-151"/>
      <point x="89" y="-151" type="curve" smooth="yes"/>
      <point x="78" y="-151"/>
      <point x="62" y="-150"/>
      <point x="49" y="-147" type="curve"/>
      <point x="49" y="-212" type="line"/>
      <point x="66" y="-217"/>
      <point x="82" y="-219"/>
    </contour>
  </outline>
</glyph>
<glyph name="z" format="2">
  <advance width="459"/>
  <unicode hex="007A"/>
  <anchor x="228" y="488" name="top"/>
  <outline>
    <contour>
      <point x="41" y="0" type="line"/>
      <point x="415" y="0" type="line"/>
      <point x="415" y="66" type="line"/>
      <point x="129" y="65" type="line"/>
      <point x="411" y="431" type="line"/>
      <point x="411" y="488" type="line"/>
      <point x="44" y="488" type="line"/>
      <point x="44" y="421" type="line"/>
      <point x="322" y="422" type="line"/>
      <point x="41" y="58" type="line"/>
    </contour>
  </outline>
</glyph>
<glyph name="cent" format="2">
  <advance width="509"/>
  <unicode hex="00A2"/>
  <outline>
    <contour>
      <point x="264" y="-118" type="line"/>
      <point x="314" y="-118" type="line"/>
      <point x="314" y="-7" type="line"/>
      <point x="378" y="-3"/>
      <point x="438" y="24"/>
      <point x="482" y="68" type="curve"/>
      <point x="435" y="119" type="line"/>
      <point x="404" y="85"/>
      <point x="359" y="63"/>
      <point x="314" y="59" type="curve"/>
      <point x="314" y="429" type="line"/>
      <point x="359" y="425"/>
      <point x="404" y="403"/>
      <point x="435" y="369" type="curve"/>
      <point x="482" y="420" type="line"/>
      <point x="438" y="464"/>
      <point x="378" y="491"/>
      <point x="314" y="495" type="curve"/>
      <point x="314" y="609" type="line"/>
      <point x="264" y="609" type="line"/>
      <point x="264" y="494" type="line"/>
      <point x="143" y="479"/>
      <point x="53" y="374"/>
      <point x="53" y="244" type="curve" smooth="yes"/>
      <point x="53" y="114"/>
      <point x="143" y="9"/>
      <point x="264" y="-6" type="curve"/>
    </contour>
    <contour>
      <point x="126" y="244" type="curve" smooth="yes"/>
      <point x="126" y="336"/>
      <point x="184" y="410"/>
      <point x="264" y="427" type="curve"/>
      <point x="264" y="61" type="line"/>
      <point x="184" y="78"/>
      <point x="126" y="152"/>
    </contour>
  </outline>
</glyph>
<glyph name="yen" format="2">
  <advance width="646"/>
  <unicode hex="00A5"/>
  <outline>
    <contour>
      <point x="284" y="0" type="line"/>
      <point x="361" y="0" type="line"/>
      <point x="361" y="134" type="line"/>
      <point x="538" y="134" type="line"/>
      <point x="538" y="188" type="line"/>
      <point x="361" y="188" type="line"/>
      <point x="361" y="263" type="line"/>
      <point x="538" y="263" type="line"/>
      <point x="538" y="317" type="line"/>
      <point x="383" y="317" type="line"/>
      <point x="634" y="700" type="line"/>
      <point x="549" y="700" type="line"/>
      <point x="325" y="353" type="line"/>
      <point x="102" y="700" type="line"/>
      <point x="12" y="700" type="line"/>
      <point x="264" y="317" type="line"/>
      <point x="106" y="317" type="line"/>
      <point x="106" y="263" type="line"/>
      <point x="284" y="263" type="line"/>
      <point x="284" y="188" type="line"/>
      <point x="106" y="188" type="line"/>
      <point x="106" y="134" type="line"/>
      <point x="284" y="134" type="line"/>
    </contour>
  </outline>
</glyph>
<glyph name="dieresis" format="2">
  <advance width="600"/>
  <unicode hex="00A8"/>
  <outline>
    <contour>
      <point x="212" y="609" type="curve" smooth="yes"/>
      <point x="241" y="609"/>
      <point x="265" y="633"/>
      <point x="265" y="661" type="curve" smooth="yes"/>
      <point x="265" y="689"/>
      <point x="241" y="713"/>
      <point x="212" y="713" type="curve" smooth="yes"/>
      <point x="183" y="713"/>
      <point x="159" y="689"/>
      <point x="159" y="661" type="curve" smooth="yes"/>
      <point x="159" y="633"/>
      <point x="183" y="609"/>
    </contour>
    <contour>
      <point x="388" y="609" type="curve" smooth="yes"/>
      <point x="417" y="609"/>
      <point x="441" y="633"/>
      <point x="441" y="661" type="curve" smooth="yes"/>
      <point x="441" y="689"/>
      <point x="417" y="713"/>
      <point x="388" y="713" type="curve" smooth="yes"/>
      <point x="359" y="713"/>
      <point x="335" y="689"/>
      <point x="335" y="661" type="curve" smooth="yes"/>
      <point x="335" y="633"/>
      <point x="359" y="609"/>
    </contour>
  </outline>
</glyph>
<glyph name="registered" format="2">
  <advance width="496"/>
  <unicode hex="00AE"/>
  <outline>
    <contour>
      <point x="247" y="312" type="curve"/>
      <point x="354" y="312"/>
      <point x="438" y="400"/>
      <point x="438" y="513" type="curve"/>
      <point x="438" y="626"/>
      <point x="354" y="714"/>
      <point x="247" y="714" type="curve"/>
      <point x="140" y="714"/>
      <point x="57" y="626"/>
      <point x="57" y="513" type="curve"/>
      <point x="57" y="400"/>
      <point x="140" y="312"/>
    </contour>
    <contour>
      <point x="247" y="346" type="curve"/>
      <point x="159" y="346"/>
      <point x="93" y="418"/>
      <point x="93" y="513" type="curve"/>
      <point x="93" y="609"/>
      <point x="159" y="680"/>
      <point x="247" y="680" type="curve"/>
      <point x="338" y="680"/>
      <point x="403" y="609"/>
      <point x="403" y="513" type="curve"/>
      <point x="403" y="417"/>
      <point x="338" y="346"/>
    </contour>
    <contour>
      <point x="184" y="420" type="line"/>
      <point x="217" y="420" type="line"/>
      <point x="217" y="491" type="line"/>
      <point x="251" y="491" type="line"/>
      <point x="291" y="420" type="line"/>
      <point x="327" y="420" type="line"/>
      <point x="282" y="498" type="line"/>
      <point x="303" y="508"/>
      <point x="315" y="528"/>
      <point x="315" y="550" type="curve" smooth="yes"/>
      <point x="315" y="586"/>
      <point x="293" y="608"/>
      <point x="256" y="608" type="curve" smooth="yes"/>
      <point x="184" y="608" type="line"/>
    </contour>
    <contour>
      <point x="251" y="580" type="line" smooth="yes"/>
      <point x="272" y="580"/>
      <point x="283" y="569"/>
      <point x="283" y="549" type="curve" smooth="yes"/>
      <point x="283" y="529"/>
      <point x="271" y="517"/>
      <point x="251" y="517" type="curve" smooth="yes"/>
      <point x="217" y="517" type="line"/>
      <point x="217" y="580" type="line"/>
    </contour>
  </outline>
</glyph>
<glyph name="threesuperior" format="2">
  <advance width="313"/>
  <unicode hex="00B3"/>
  <outline>
    <contour>
      <point x="151" y="345" type="curve"/>
      <point x="229" y="345"/>
      <point x="284" y="387"/>
      <point x="284" y="447" type="curve"/>
      <point x="284" y="489"/>
      <point x="250" y="520"/>
      <point x="199" y="529" type="curve"/>
      <point x="244" y="541"/>
      <point x="272" y="572"/>
      <point x="272" y="609" type="curve"/>
      <point x="272" y="666"/>
      <point x="221" y="706"/>
      <point x="151" y="706" type="curve"/>
      <point x="106" y="706"/>
      <point x="61" y="689"/>
      <point x="25" y="658" type="curve"/>
      <point x="56" y="622" type="line"/>
      <point x="89" y="649"/>
      <point x="117" y="660"/>
      <point x="150" y="660" type="curve"/>
      <point x="190" y="660"/>
      <point x="220" y="637"/>
      <point x="220" y="605" type="curve"/>
      <point x="220" y="570"/>
      <point x="189" y="545"/>
      <point x="147" y="545" type="curve"/>
      <point x="119" y="545" type="line"/>
      <point x="119" y="505" type="line"/>
      <point x="152" y="505" type="line"/>
      <point x="201" y="505"/>
      <point x="233" y="483"/>
      <point x="233" y="448" type="curve"/>
      <point x="233" y="413"/>
      <point x="199" y="390"/>
      <point x="151" y="390" type="curve"/>
      <point x="117" y="390"/>
      <point x="85" y="401"/>
      <point x="50" y="428" type="curve"/>
      <point x="20" y="390" type="line"/>
      <point x="58" y="360"/>
      <point x="102" y="345"/>
    </contour>
  </outline>
</glyph>
<glyph name="uni00B5" format="2">
  <advance width="555"/>
  <unicode hex="00B5"/>
  <outline>
    <contour>
      <point x="75" y="-209" type="line"/>
      <point x="148" y="-209" type="line"/>
      <point x="148" y="26" type="line"/>
      <point x="176" y="4"/>
      <point x="211" y="-8"/>
      <point x="252" y="-8" type="curve" smooth="yes"/>
      <point x="317" y="-8"/>
      <point x="370" y="21"/>
      <point x="407" y="79" type="curve"/>
      <point x="407" y="0" type="line"/>
      <point x="480" y="0" type="line"/>
      <point x="480" y="488" type="line"/>
      <point x="407" y="488" type="line"/>
      <point x="407" y="128" type="line"/>
      <point x="378" y="79"/>
      <point x="333" y="53"/>
      <point x="279" y="53" type="curve" smooth="yes"/>
      <point x="199" y="53"/>
      <point x="148" y="107"/>
      <point x="148" y="193" type="curve"/>
      <point x="148" y="488" type="line"/>
      <point x="75" y="488" type="line"/>
    </contour>
  </outline>
</glyph>
<glyph name="paragraph" format="2">
  <advance width="650"/>
  <unicode hex="00B6"/>
  <outline>
    <contour>
      <point x="316" y="0" type="line"/>
      <point x="383" y="0" type="line"/>
      <point x="383" y="289" type="line"/>
      <point x="496" y="289" type="line"/>
      <point x="496" y="0" type="line"/>
      <point x="562" y="0" type="line"/>
      <point x="562" y="700" type="line"/>
      <point x="261" y="700" type="line" smooth="yes"/>
      <point x="136" y="700"/>
      <point x="51" y="617"/>
      <point x="51" y="494" type="curve" smooth="yes"/>
      <point x="51" y="373"/>
      <point x="137" y="289"/>
      <point x="262" y="289" type="curve" smooth="yes"/>
      <point x="316" y="289" type="line"/>
    </contour>
    <contour>
      <point x="383" y="352" type="line"/>
      <point x="383" y="637" type="line"/>
      <point x="496" y="637" type="line"/>
      <point x="496" y="352" type="line"/>
    </contour>
    <contour>
      <point x="262" y="352" type="line" smooth="yes"/>
      <point x="177" y="352"/>
      <point x="120" y="408"/>
      <point x="120" y="495" type="curve" smooth="yes"/>
      <point x="120" y="580"/>
      <point x="177" y="637"/>
      <point x="262" y="637" type="curve" smooth="yes"/>
      <point x="316" y="637" type="line"/>
      <point x="316" y="352" type="line"/>
    </contour>
  </outline>
</glyph>
<glyph name="periodcentered" format="2">
  <advance width="250"/>
  <unicode hex="00B7"/>
  <outline>
    <contour>
      <point x="128" y="229" type="curve" smooth="yes"/>
      <point x="157" y="229"/>
      <point x="181" y="253"/>
      <point x="181" y="283" type="curve" smooth="yes"/>
      <point x="181" y="313"/>
      <point x="157" y="337"/>
      <point x="128" y="337" type="curve" smooth="yes"/>
      <point x="99" y="337"/>
      <point x="75" y="313"/>
      <point x="75" y="283" type="curve" smooth="yes"/>
      <point x="75" y="253"/>
      <point x="99" y="229"/>
    </contour>
  </outline>
</glyph>
<glyph name="cedilla" format="2">
  <advance width="600"/>
  <unicode hex="00B8"/>
  <outline>
    <contour>
      <point x="285" y="-239" type="curve" smooth="yes"/>
      <point x="350" y="-239"/>
      <point x="396" y="-200"/>
      <point x="396" y="-146" type="curve" smooth="yes"/>
      <point x="396" y="-99"/>
      <point x="358" y="-69"/>
      <point x="299" y="-66" type="curve"/>
      <point x="314" y="0" type="line"/>
      <point x="272" y="0" type="line"/>
      <point x="247" y="-99" type="line"/>
      <point x="276" y="-99" type="line" smooth="yes"/>
      <point x="321" y="-99"/>
      <point x="347" y="-117"/>
      <point x="347" y="-148" type="curve" smooth="yes"/>
      <point x="347" y="-180"/>
      <point x="323" y="-200"/>
      <point x="282" y="-200" type="curve" smooth="yes"/>
      <point x="253" y="-200"/>
      <point x="226" y="-190"/>
      <point x="203" y="-171" type="curve"/>
      <point x="175" y="-203" type="line"/>
      <point x="202" y="-227"/>
      <point x="240" y="-239"/>
    </contour>
  </outline>
</glyph>
<glyph name="AE" format="2">
  <advance width="918"/>
  <unicode hex="00C6"/>
  <outline>
    <contour>
      <point x="9" y="0" type="line"/>
      <point x="89" y="0" type="line"/>
      <point x="173" y="220" type="line"/>
      <point x="484" y="220" type="line"/>
      <point x="567" y="0" type="line"/>
      <point x="870" y="0" type="line"/>
      <point x="870" y="68" type="line"/>
      <point x="621" y="68" type="line"/>
      <point x="526" y="320" type="line"/>
      <point x="738" y="320" type="line"/>
      <point x="738" y="387" type="line"/>
      <point x="501" y="387" type="line"/>
      <point x="409" y="632" type="line"/>
      <point x="870" y="632" type="line"/>
      <point x="870" y="700" type="line"/>
      <point x="286" y="700" type="line"/>
    </contour>
    <contour>
      <point x="196" y="281" type="line"/>
      <point x="329" y="631" type="line"/>
      <point x="461" y="281" type="line"/>
    </contour>
  </outline>
</glyph>
<glyph name="Ccedilla" format="2">
  <advance width="726"/>
  <unicode hex="00C7"/>
  <outline>
    <contour>
      <point x="403" y="-239" type="curve" smooth="yes"/>
      <point x="468" y="-239"/>
      <point x="514" y="-200"/>
      <point x="514" y="-146" type="curve" smooth="yes"/>
      <point x="514" y="-99"/>
      <point x="476" y="-69"/>
      <point x="417" y="-66" type="curve"/>
      <point x="430" y="-11" type="line"/>
      <point x="526" y="-6"/>
      <point x="614" y="34"/>
      <point x="676" y="104" type="curve"/>
      <point x="625" y="157" type="line"/>
      <point x="573" y="95"/>
      <point x="493" y="59"/>
      <point x="412" y="59" type="curve" smooth="yes"/>
      <point x="254" y="59"/>
      <point x="134" y="186"/>
      <point x="134" y="350" type="curve" smooth="yes"/>
      <point x="134" y="514"/>
      <point x="254" y="641"/>
      <point x="412" y="641" type="curve" smooth="yes"/>
      <point x="493" y="641"/>
      <point x="573" y="605"/>
      <point x="625" y="543" type="curve"/>
      <point x="676" y="596" type="line"/>
      <point x="610" y="670"/>
      <point x="515" y="711"/>
      <point x="412" y="711" type="curve" smooth="yes"/>
      <point x="212" y="711"/>
      <point x="56" y="552"/>
      <point x="56" y="350" type="curve" smooth="yes"/>
      <point x="56" y="156"/>
      <point x="199" y="2"/>
      <point x="387" y="-10" type="curve"/>
      <point x="365" y="-99" type="line"/>
      <point x="394" y="-99" type="line" smooth="yes"/>
      <point x="439" y="-99"/>
      <point x="465" y="-117"/>
      <point x="465" y="-148" type="curve" smooth="yes"/>
      <point x="465" y="-180"/>
      <point x="441" y="-200"/>
      <point x="400" y="-200" type="curve" smooth="yes"/>
      <point x="371" y="-200"/>
      <point x="344" y="-190"/>
      <point x="321" y="-171" type="curve"/>
      <point x="293" y="-203" type="line"/>
      <point x="320" y="-227"/>
      <point x="358" y="-239"/>
    </contour>
  </outline>
</glyph>
<glyph name="multiply" format="2">
  <advance width="600"/>
  <unicode hex="00D7"/>
  <outline>
    <contour>
      <point x="151" y="162" type="line"/>
      <point x="298" y="319" type="line"/>
      <point x="446" y="161" type="line"/>
      <point x="486" y="202" type="line"/>
      <point x="337" y="360" type="line"/>
      <point x="485" y="517" type="line"/>
      <point x="446" y="557" type="line"/>
      <point x="299" y="400" type="line"/>
      <point x="152" y="557" type="line"/>
      <point x="114" y="516" type="line"/>
      <point x="261" y="359" type="line"/>
      <point x="114" y="202" type="line"/>
    </contour>
  </outline>
</glyph>
<glyph name="Oslash" format="2">
  <advance width="810"/>
  <unicode hex="00D8"/>
  <outline>
    <contour>
      <point x="405" y="-11" type="curve" smooth="yes"/>
      <point x="600" y="-11"/>
      <point x="753" y="148"/>
      <point x="753" y="350" type="curve" smooth="yes"/>
      <point x="753" y="451"/>
      <point x="715" y="542"/>
      <point x="652" y="607" type="curve"/>
      <point x="732" y="705" type="line"/>
      <point x="657" y="705" type="line"/>
      <point x="608" y="645" type="line"/>
      <point x="551" y="687"/>
      <point x="481" y="711"/>
      <point x="405" y="711" type="curve" smooth="yes"/>
      <point x="211" y="711"/>
      <point x="57" y="552"/>
      <point x="57" y="350" type="curve" smooth="yes"/>
      <point x="57" y="249"/>
      <point x="95" y="159"/>
      <point x="158" y="94" type="curve"/>
      <point x="77" y="-5" type="line"/>
      <point x="150" y="-5" type="line"/>
      <point x="200" y="57" type="line"/>
      <point x="258" y="14"/>
      <point x="328" y="-11"/>
    </contour>
    <contour>
      <point x="205" y="152" type="line"/>
      <point x="161" y="203"/>
      <point x="135" y="273"/>
      <point x="135" y="350" type="curve" smooth="yes"/>
      <point x="135" y="514"/>
      <point x="253" y="641"/>
      <point x="405" y="641" type="curve" smooth="yes"/>
      <point x="464" y="641"/>
      <point x="518" y="622"/>
      <point x="562" y="589" type="curve"/>
    </contour>
    <contour>
      <point x="405" y="59" type="curve" smooth="yes"/>
      <point x="345" y="59"/>
      <point x="291" y="79"/>
      <point x="246" y="113" type="curve"/>
      <point x="604" y="549" type="line"/>
      <point x="649" y="498"/>
      <point x="675" y="428"/>
      <point x="675" y="350" type="curve" smooth="yes"/>
      <point x="675" y="186"/>
      <point x="558" y="59"/>
    </contour>
  </outline>
</glyph>
<glyph name="germandbls" format="2">
  <advance width="592"/>
  <unicode hex="00DF"/>
  <outline>
    <contour>
      <point x="393" y="-11" type="curve" smooth="yes"/>
      <point x="496" y="-11"/>
      <point x="566" y="50"/>
      <point x="566" y="140" type="curve" smooth="yes"/>
      <point x="566" y="210"/>
      <point x="529" y="255"/>
      <point x="448" y="287" type="curve" smooth="yes"/>
      <point x="387" y="311" type="line" smooth="yes"/>
      <point x="337" y="331"/>
      <point x="325" y="343"/>
      <point x="325" y="371" type="curve" smooth="yes"/>
      <point x="325" y="445"/>
      <point x="483" y="452"/>
      <point x="483" y="576" type="curve" smooth="yes"/>
      <point x="483" y="668"/>
      <point x="406" y="737"/>
      <point x="289" y="737" type="curve" smooth="yes"/>
      <point x="154" y="737"/>
      <point x="75" y="644"/>
      <point x="75" y="501" type="curve" smooth="yes"/>
      <point x="75" y="0" type="line"/>
      <point x="148" y="0" type="line"/>
      <point x="148" y="502" type="line" smooth="yes"/>
      <point x="148" y="607"/>
      <point x="198" y="673"/>
      <point x="290" y="673" type="curve" smooth="yes"/>
      <point x="362" y="673"/>
      <point x="414" y="633"/>
      <point x="414" y="578" type="curve" smooth="yes"/>
      <point x="414" y="481"/>
      <point x="257" y="489"/>
      <point x="257" y="371" type="curve" smooth="yes"/>
      <point x="257" y="315"/>
      <point x="284" y="282"/>
      <point x="354" y="255" type="curve" smooth="yes"/>
      <point x="419" y="230" type="line" smooth="yes"/>
      <point x="475" y="208"/>
      <point x="497" y="184"/>
      <point x="497" y="138" type="curve" smooth="yes"/>
      <point x="497" y="83"/>
      <point x="454" y="47"/>
      <point x="392" y="47" type="curve" smooth="yes"/>
      <point x="345" y="47"/>
      <point x="303" y="64"/>
      <point x="267" y="98" type="curve"/>
      <point x="226" y="50" type="line"/>
      <point x="273" y="8"/>
      <point x="326" y="-11"/>
    </contour>
  </outline>
</glyph>
<glyph name="ae" format="2">
  <advance width="886"/>
  <unicode hex="00E6"/>
  <outline>
    <contour>
      <point x="228" y="-9" type="curve" smooth="yes"/>
      <point x="310" y="-9"/>
      <point x="376" y="24"/>
      <point x="429" y="90" type="curve"/>
      <point x="473" y="29"/>
      <point x="542" y="-10"/>
      <point x="623" y="-10" type="curve" smooth="yes"/>
      <point x="692" y="-10"/>
      <point x="750" y="11"/>
      <point x="806" y="55" type="curve"/>
      <point x="760" y="104" type="line"/>
      <point x="728" y="73"/>
      <point x="677" y="54"/>
      <point x="627" y="54" type="curve" smooth="yes"/>
      <point x="534" y="54"/>
      <point x="460" y="128"/>
      <point x="453" y="228" type="curve"/>
      <point x="836" y="228" type="line"/>
      <point x="836" y="250" type="line" smooth="yes"/>
      <point x="836" y="390"/>
      <point x="740" y="496"/>
      <point x="612" y="496" type="curve" smooth="yes"/>
      <point x="538" y="496"/>
      <point x="475" y="462"/>
      <point x="434" y="404" type="curve"/>
      <point x="408" y="464"/>
      <point x="349" y="496"/>
      <point x="264" y="496" type="curve" smooth="yes"/>
      <point x="205" y="496"/>
      <point x="147" y="481"/>
      <point x="80" y="449" type="curve"/>
      <point x="107" y="393" type="line"/>
      <point x="164" y="422"/>
      <point x="210" y="435"/>
      <point x="255" y="435" type="curve" smooth="yes"/>
      <point x="338" y="435"/>
      <point x="381" y="394"/>
      <point x="381" y="314" type="curve" smooth="yes"/>
      <point x="381" y="248" type="line"/>
      <point x="338" y="272"/>
      <point x="288" y="285"/>
      <point x="232" y="285" type="curve" smooth="yes"/>
      <point x="122" y="285"/>
      <point x="50" y="227"/>
      <point x="50" y="141" type="curve" smooth="yes"/>
      <point x="50" y="52"/>
      <point x="122" y="-9"/>
    </contour>
    <contour>
      <point x="455" y="280" type="line"/>
      <point x="468" y="370"/>
      <point x="529" y="433"/>
      <point x="611" y="433" type="curve" smooth="yes"/>
      <point x="691" y="433"/>
      <point x="753" y="368"/>
      <point x="764" y="280" type="curve"/>
    </contour>
    <contour>
      <point x="241" y="47" type="curve" smooth="yes"/>
      <point x="168" y="47"/>
      <point x="119" y="85"/>
      <point x="119" y="142" type="curve" smooth="yes"/>
      <point x="119" y="197"/>
      <point x="168" y="233"/>
      <point x="243" y="233" type="curve" smooth="yes"/>
      <point x="299" y="233"/>
      <point x="343" y="221"/>
      <point x="385" y="195" type="curve"/>
      <point x="389" y="173"/>
      <point x="395" y="153"/>
      <point x="404" y="134" type="curve"/>
      <point x="362" y="76"/>
      <point x="308" y="47"/>
    </contour>
  </outline>
</glyph>
<glyph name="ccedilla" format="2">
  <advance width="509"/>
  <unicode hex="00E7"/>
  <outline>
    <contour>
      <point x="288" y="-232" type="curve" smooth="yes"/>
      <point x="353" y="-232"/>
      <point x="399" y="-193"/>
      <point x="399" y="-139" type="curve" smooth="yes"/>
      <point x="399" y="-92"/>
      <point x="361" y="-62"/>
      <point x="302" y="-59" type="curve"/>
      <point x="314" y="-7" type="line"/>
      <point x="378" y="-3"/>
      <point x="438" y="24"/>
      <point x="482" y="68" type="curve"/>
      <point x="435" y="119" type="line"/>
      <point x="400" y="81"/>
      <point x="348" y="58"/>
      <point x="297" y="58" type="curve" smooth="yes"/>
      <point x="201" y="58"/>
      <point x="126" y="140"/>
      <point x="126" y="244" type="curve" smooth="yes"/>
      <point x="126" y="348"/>
      <point x="201" y="430"/>
      <point x="297" y="430" type="curve" smooth="yes"/>
      <point x="348" y="430"/>
      <point x="400" y="407"/>
      <point x="435" y="369" type="curve"/>
      <point x="482" y="420" type="line"/>
      <point x="434" y="468"/>
      <point x="366" y="496"/>
      <point x="294" y="496" type="curve" smooth="yes"/>
      <point x="158" y="496"/>
      <point x="53" y="385"/>
      <point x="53" y="244" type="curve" smooth="yes"/>
      <point x="53" y="111"/>
      <point x="147" y="5"/>
      <point x="271" y="-7" type="curve"/>
      <point x="250" y="-92" type="line"/>
      <point x="279" y="-92" type="line" smooth="yes"/>
      <point x="324" y="-92"/>
      <point x="350" y="-110"/>
      <point x="350" y="-141" type="curve" smooth="yes"/>
      <point x="350" y="-173"/>
      <point x="326" y="-193"/>
      <point x="285" y="-193" type="curve" smooth="yes"/>
      <point x="256" y="-193"/>
      <point x="229" y="-183"/>
      <point x="206" y="-164" type="curve"/>
      <point x="178" y="-196" type="line"/>
      <point x="205" y="-220"/>
      <point x="243" y="-232"/>
    </contour>
  </outline>
</glyph>
<glyph name="eth" format="2">
  <advance width="590"/>
  <unicode hex="00F0"/>
  <outline>
    <contour>
      <point x="289" y="-10" type="curve" smooth="yes"/>
      <point x="436" y="-10"/>
      <point x="534" y="109"/>
      <point x="534" y="289" type="curve" smooth="yes"/>
      <point x="534" y="435"/>
      <point x="492" y="553"/>
      <point x="412" y="635" type="curve"/>
      <point x="503" y="695" type="line"/>
      <point x="476" y="737" type="line"/>
      <point x="373" y="670" type="line"/>
      <point x="336" y="699"/>
      <point x="293" y="721"/>
      <point x="244" y="737" type="curve"/>
      <point x="214" y="685" type="line"/>
      <point x="252" y="673"/>
      <point x="287" y="656"/>
      <point x="318" y="634" type="curve"/>
      <point x="233" y="579" type="line"/>
      <point x="262" y="537" type="line"/>
      <point x="357" y="599" type="line"/>
      <point x="415" y="541"/>
      <point x="453" y="459"/>
      <point x="465" y="362" type="curve"/>
      <point x="432" y="430"/>
      <point x="362" y="476"/>
      <point x="277" y="476" type="curve" smooth="yes"/>
      <point x="148" y="476"/>
      <point x="52" y="375"/>
      <point x="52" y="238" type="curve" smooth="yes"/>
      <point x="52" y="99"/>
      <point x="156" y="-10"/>
    </contour>
    <contour>
      <point x="291" y="54" type="curve" smooth="yes"/>
      <point x="195" y="54"/>
      <point x="124" y="133"/>
      <point x="124" y="236" type="curve" smooth="yes"/>
      <point x="124" y="339"/>
      <point x="195" y="418"/>
      <point x="291" y="418" type="curve" smooth="yes"/>
      <point x="387" y="418"/>
      <point x="458" y="339"/>
      <point x="458" y="236" type="curve" smooth="yes"/>
      <point x="458" y="133"/>
      <point x="387" y="54"/>
    </contour>
  </outline>
</glyph>
<glyph name="oslash" format="2">
  <advance width="580"/>
  <unicode hex="00F8"/>
  <outline>
    <contour>
      <point x="290" y="-8" type="curve" smooth="yes"/>
      <point x="425" y="-8"/>
      <point x="527" y="100"/>
      <point x="527" y="244" type="curve" smooth="yes"/>
      <point x="527" y="313"/>
      <point x="504" y="373"/>
      <point x="465" y="417" type="curve"/>
      <point x="524" y="488" type="line"/>
      <point x="463" y="488" type="line"/>
      <point x="431" y="449" type="line"/>
      <point x="392" y="479"/>
      <point x="344" y="496"/>
      <point x="290" y="496" type="curve" smooth="yes"/>
      <point x="155" y="496"/>
      <point x="53" y="388"/>
      <point x="53" y="244" type="curve" smooth="yes"/>
      <point x="53" y="175"/>
      <point x="76" y="115"/>
      <point x="115" y="70" type="curve"/>
      <point x="57" y="0" type="line"/>
      <point x="118" y="0" type="line"/>
      <point x="150" y="38" type="line"/>
      <point x="188" y="9"/>
      <point x="237" y="-8"/>
    </contour>
    <contour>
      <point x="161" y="124" type="line"/>
      <point x="138" y="156"/>
      <point x="125" y="198"/>
      <point x="125" y="244" type="curve" smooth="yes"/>
      <point x="125" y="351"/>
      <point x="195" y="432"/>
      <point x="290" y="432" type="curve" smooth="yes"/>
      <point x="327" y="432"/>
      <point x="361" y="419"/>
      <point x="388" y="398" type="curve"/>
    </contour>
    <contour>
      <point x="290" y="56" type="curve" smooth="yes"/>
      <point x="253" y="56"/>
      <point x="220" y="68"/>
      <point x="193" y="90" type="curve"/>
      <point x="420" y="363" type="line"/>
      <point x="442" y="331"/>
      <point x="455" y="290"/>
      <point x="455" y="244" type="curve" smooth="yes"/>
      <point x="455" y="137"/>
      <point x="385" y="56"/>
    </contour>
  </outline>
</glyph>
<glyph name="Aogonek" format="2">
  <advance width="660"/>
  <unicode hex="0104"/>
  <outline>
    <contour>
      <point x="603" y="-231" type="curve" smooth="yes"/>
      <point x="630" y="-231"/>
      <point x="657" y="-224"/>
      <point x="676" y="-212" type="curve"/>
      <point x="662" y="-173" type="line"/>
      <point x="650" y="-181"/>
      <point x="631" y="-185"/>
      <point x="614" y="-185" type="curve" smooth="yes"/>
      <point x="572" y="-185"/>
      <point x="547" y="-164"/>
      <point x="547" y="-128" type="curve" smooth="yes"/>
      <point x="547" y="-87"/>
      <point x="579" y="-47"/>
      <point x="651" y="0" type="curve"/>
      <point x="378" y="700" type="line"/>
      <point x="286" y="700" type="line"/>
      <point x="9" y="0" type="line"/>
      <point x="90" y="0" type="line"/>
      <point x="173" y="220" type="line"/>
      <point x="485" y="220" type="line"/>
      <point x="568" y="0" type="line"/>
      <point x="596" y="0" type="line"/>
      <point x="526" y="-50"/>
      <point x="497" y="-91"/>
      <point x="497" y="-140" type="curve" smooth="yes"/>
      <point x="497" y="-195"/>
      <point x="539" y="-231"/>
    </contour>
    <contour>
      <point x="197" y="281" type="line"/>
      <point x="329" y="630" type="line"/>
      <point x="462" y="281" type="line"/>
    </contour>
  </outline>
</glyph>
<glyph name="aogonek" format="2">
  <advance width="526"/>
  <unicode hex="0105"/>
  <outline>
    <contour>
      <point x="405" y="-231" type="curve" smooth="yes"/>
      <point x="432" y="-231"/>
      <point x="459" y="-224"/>
      <point x="478" y="-212" type="curve"/>
      <point x="464" y="-173" type="line"/>
      <point x="452" y="-181"/>
      <point x="433" y="-185"/>
      <point x="416" y="-185" type="curve" smooth="yes"/>
      <point x="374" y="-185"/>
      <point x="349" y="-164"/>
      <point x="349" y="-128" type="curve" smooth="yes"/>
      <point x="349" y="-87"/>
      <point x="381" y="-47"/>
      <point x="453" y="0" type="curve"/>
      <point x="453" y="324" type="line" smooth="yes"/>
      <point x="453" y="435"/>
      <point x="385" y="496"/>
      <point x="264" y="496" type="curve" smooth="yes"/>
      <point x="205" y="496"/>
      <point x="147" y="481"/>
      <point x="80" y="449" type="curve"/>
      <point x="107" y="393" type="line"/>
      <point x="164" y="422"/>
      <point x="210" y="435"/>
      <point x="255" y="435" type="curve" smooth="yes"/>
      <point x="338" y="435"/>
      <point x="381" y="394"/>
      <point x="381" y="314" type="curve" smooth="yes"/>
      <point x="381" y="247" type="line"/>
      <point x="338" y="273"/>
      <point x="288" y="285"/>
      <point x="232" y="285" type="curve" smooth="yes"/>
      <point x="122" y="285"/>
      <point x="49" y="227"/>
      <point x="49" y="140" type="curve" smooth="yes"/>
      <point x="49" y="52"/>
      <point x="122" y="-9"/>
      <point x="226" y="-9" type="curve" smooth="yes"/>
      <point x="286" y="-9"/>
      <point x="338" y="13"/>
      <point x="381" y="57" type="curve"/>
      <point x="381" y="0" type="line"/>
      <point x="398" y="0" type="line"/>
      <point x="328" y="-50"/>
      <point x="299" y="-91"/>
      <point x="299" y="-140" type="curve" smooth="yes"/>
      <point x="299" y="-195"/>
      <point x="341" y="-231"/>
    </contour>
    <contour>
      <point x="241" y="47" type="curve" smooth="yes"/>
      <point x="168" y="47"/>
      <point x="119" y="85"/>
      <point x="119" y="142" type="curve" smooth="yes"/>
      <point x="119" y="196"/>
      <point x="168" y="232"/>
      <point x="243" y="232" type="curve" smooth="yes"/>
      <point x="298" y="232"/>
      <point x="340" y="221"/>
      <point x="381" y="197" type="curve"/>
      <point x="381" y="103" type="line"/>
      <point x="341" y="65"/>
      <point x="296" y="47"/>
    </contour>
  </outline>
</glyph>
<glyph name="Dcroat" format="2">
  <advance width="760"/>
  <unicode hex="0110"/>
  <outline>
    <contour>
      <point x="121" y="0" type="line"/>
      <point x="353" y="0" type="line" smooth="yes"/>
      <point x="559" y="0"/>
      <point x="703" y="151"/>
      <point x="703" y="350" type="curve" smooth="yes"/>
      <point x="703" y="549"/>
      <point x="559" y="700"/>
      <point x="353" y="700" type="curve" smooth="yes"/>
      <point x="121" y="700" type="line"/>
      <point x="121" y="383" type="line"/>
      <point x="25" y="383" type="line"/>
      <point x="25" y="322" type="line"/>
      <point x="121" y="322" type="line"/>
    </contour>
    <contour>
      <point x="198" y="69" type="line"/>
      <point x="198" y="322" type="line"/>
      <point x="364" y="322" type="line"/>
      <point x="364" y="383" type="line"/>
      <point x="198" y="383" type="line"/>
      <point x="198" y="631" type="line"/>
      <point x="358" y="631" type="line" smooth="yes"/>
      <point x="509" y="631"/>
      <point x="625" y="510"/>
      <point x="625" y="350" type="curve" smooth="yes"/>
      <point x="625" y="190"/>
      <point x="509" y="69"/>
      <point x="358" y="69" type="curve" smooth="yes"/>
    </contour>
  </outline>
</glyph>
<glyph name="dcroat" format="2">
  <advance width="588"/>
  <unicode hex="0111"/>
  <outline>
    <contour>
      <point x="278" y="-7" type="curve" smooth="yes"/>
      <point x="342" y="-7"/>
      <point x="397" y="18"/>
      <point x="434" y="65" type="curve"/>
      <point x="434" y="0" type="line"/>
      <point x="507" y="0" type="line"/>
      <point x="507" y="573" type="line"/>
      <point x="568" y="573" type="line"/>
      <point x="568" y="627" type="line"/>
      <point x="507" y="627" type="line"/>
      <point x="507" y="737" type="line"/>
      <point x="434" y="722" type="line"/>
      <point x="434" y="627" type="line"/>
      <point x="288" y="627" type="line"/>
      <point x="288" y="573" type="line"/>
      <point x="434" y="573" type="line"/>
      <point x="434" y="426" type="line"/>
      <point x="395" y="470"/>
      <point x="342" y="494"/>
      <point x="282" y="494" type="curve" smooth="yes"/>
      <point x="153" y="494"/>
      <point x="53" y="384"/>
      <point x="53" y="243" type="curve" smooth="yes"/>
      <point x="53" y="103"/>
      <point x="151" y="-7"/>
    </contour>
    <contour>
      <point x="296" y="57" type="curve" smooth="yes"/>
      <point x="198" y="57"/>
      <point x="125" y="137"/>
      <point x="125" y="244" type="curve" smooth="yes"/>
      <point x="125" y="351"/>
      <point x="198" y="430"/>
      <point x="296" y="430" type="curve" smooth="yes"/>
      <point x="351" y="430"/>
      <point x="402" y="405"/>
      <point x="434" y="364" type="curve"/>
      <point x="434" y="122" type="line"/>
      <point x="403" y="80"/>
      <point x="353" y="57"/>
    </contour>
  </outline>
</glyph>
<glyph name="Eogonek" format="2">
  <advance width="619"/>
  <unicode hex="0118"/>
  <outline>
    <contour>
      <point x="596" y="-212" type="curve"/>
      <point x="582" y="-173" type="line"/>
      <point x="570" y="-181"/>
      <point x="551" y="-185"/>
      <point x="534" y="-185" type="curve" smooth="yes"/>
      <point x="492" y="-185"/>
      <point x="467" y="-164"/>
      <point x="467" y="-128" type="curve" smooth="yes"/>
      <point x="467" y="-87"/>
      <point x="499" y="-47"/>
      <point x="571" y="0" type="curve"/>
      <point x="571" y="68" type="line"/>
      <point x="166" y="68" type="line"/>
      <point x="166" y="320" type="line"/>
      <point x="444" y="320" type="line"/>
      <point x="444" y="387" type="line"/>
      <point x="166" y="387" type="line"/>
      <point x="166" y="632" type="line"/>
      <point x="567" y="632" type="line"/>
      <point x="567" y="700" type="line"/>
      <point x="89" y="700" type="line"/>
      <point x="89" y="0" type="line"/>
      <point x="516" y="0" type="line"/>
      <point x="446" y="-50"/>
      <point x="417" y="-91"/>
      <point x="417" y="-140" type="curve" smooth="yes"/>
      <point x="417" y="-195"/>
      <point x="459" y="-231"/>
      <point x="523" y="-231" type="curve" smooth="yes"/>
      <point x="550" y="-231"/>
      <point x="577" y="-224"/>
    </contour>
  </outline>
</glyph>
<glyph name="eogonek" format="2">
  <advance width="557"/>
  <unicode hex="0119"/>
  <outline>
    <contour>
      <point x="323" y="-231" type="curve" smooth="yes"/>
      <point x="350" y="-231"/>
      <point x="377" y="-224"/>
      <point x="396" y="-212" type="curve"/>
      <point x="382" y="-173" type="line"/>
      <point x="370" y="-181"/>
      <point x="351" y="-185"/>
      <point x="334" y="-185" type="curve" smooth="yes"/>
      <point x="292" y="-185"/>
      <point x="267" y="-164"/>
      <point x="267" y="-128" type="curve" smooth="yes"/>
      <point x="267" y="-87"/>
      <point x="299" y="-47"/>
      <point x="370" y="0" type="curve"/>
      <point x="408" y="10"/>
      <point x="444" y="28"/>
      <point x="478" y="55" type="curve"/>
      <point x="432" y="104" type="line"/>
      <point x="399" y="73"/>
      <point x="349" y="54"/>
      <point x="298" y="54" type="curve" smooth="yes"/>
      <point x="205" y="54"/>
      <point x="131" y="128"/>
      <point x="124" y="228" type="curve"/>
      <point x="507" y="228" type="line"/>
      <point x="507" y="250" type="line" smooth="yes"/>
      <point x="507" y="390"/>
      <point x="411" y="496"/>
      <point x="283" y="496" type="curve" smooth="yes"/>
      <point x="153" y="496"/>
      <point x="53" y="387"/>
      <point x="53" y="244" type="curve" smooth="yes"/>
      <point x="53" y="98"/>
      <point x="163" y="-15"/>
      <point x="302" y="-10" type="curve"/>
      <point x="242" y="-56"/>
      <point x="217" y="-93"/>
      <point x="217" y="-140" type="curve" smooth="yes"/>
      <point x="217" y="-195"/>
      <point x="259" y="-231"/>
    </contour>
    <contour>
      <point x="126" y="280" type="line"/>
      <point x="139" y="370"/>
      <point x="201" y="433"/>
      <point x="282" y="433" type="curve" smooth="yes"/>
      <point x="362" y="433"/>
      <point x="424" y="368"/>
      <point x="435" y="280" type="curve"/>
    </contour>
  </outline>
</glyph>
<glyph name="hcircumflex" format="2">
  <advance width="552"/>
  <unicode hex="0125"/>
  <outline>
    <contour>
      <point x="75" y="0" type="line"/>
      <point x="148" y="0" type="line"/>
      <point x="148" y="360" type="line"/>
      <point x="177" y="409"/>
      <point x="222" y="435"/>
      <point x="276" y="435" type="curve" smooth="yes"/>
      <point x="357" y="435"/>
      <point x="407" y="380"/>
      <point x="407" y="295" type="curve" smooth="yes"/>
      <point x="407" y="0" type="line"/>
      <point x="480" y="0" type="line"/>
      <point x="480" y="316" type="line" smooth="yes"/>
      <point x="480" y="422"/>
      <point x="408" y="496"/>
      <point x="303" y="496" type="curve" smooth="yes"/>
      <point x="236" y="496"/>
      <point x="184" y="465"/>
      <point x="148" y="409" type="curve"/>
      <point x="148" y="727" type="line"/>
      <point x="75" y="727" type="line"/>
    </contour>
    <contour>
      <point x="-40" y="811" type="line"/>
      <point x="19" y="811" type="line"/>
      <point x="112" y="895" type="line"/>
      <point x="206" y="811" type="line"/>
      <point x="266" y="811" type="line"/>
      <point x="152" y="938" type="line"/>
      <point x="74" y="938" type="line"/>
    </contour>
  </outline>
</glyph>
<glyph name="Hbar" format="2">
  <advance width="748"/>
  <unicode hex="0126"/>
  <outline>
    <contour>
      <point x="96" y="0" type="line"/>
      <point x="173" y="0" type="line"/>
      <point x="173" y="318" type="line"/>
      <point x="575" y="318" type="line"/>
      <point x="575" y="0" type="line"/>
      <point x="652" y="0" type="line"/>
      <point x="652" y="521" type="line"/>
      <point x="736" y="521" type="line"/>
      <point x="736" y="582" type="line"/>
      <point x="652" y="582" type="line"/>
      <point x="652" y="700" type="line"/>
      <point x="575" y="700" type="line"/>
      <point x="575" y="582" type="line"/>
      <point x="173" y="582" type="line"/>
      <point x="173" y="700" type="line"/>
      <point x="96" y="700" type="line"/>
      <point x="96" y="582" type="line"/>
      <point x="12" y="582" type="line"/>
      <point x="12" y="521" type="line"/>
      <point x="96" y="521" type="line"/>
    </contour>
    <contour>
      <point x="173" y="386" type="line"/>
      <point x="173" y="521" type="line"/>
      <point x="575" y="521" type="line"/>
      <point x="575" y="386" type="line"/>
    </contour>
  </outline>
</glyph>
<glyph name="Iogonek" format="2">
  <advance width="253"/>
  <unicode hex="012E"/>
  <outline>
    <contour>
      <point x="117" y="-231" type="curve" smooth="yes"/>
      <point x="144" y="-231"/>
      <point x="171" y="-224"/>
      <point x="190" y="-212" type="curve"/>
      <point x="176" y="-173" type="line"/>
      <point x="164" y="-181"/>
      <point x="145" y="-185"/>
      <point x="128" y="-185" type="curve" smooth="yes"/>
      <point x="86" y="-185"/>
      <point x="61" y="-164"/>
      <point x="61" y="-128" type="curve" smooth="yes"/>
      <point x="61" y="-87"/>
      <point x="93" y="-47"/>
      <point x="165" y="0" type="curve"/>
      <point x="165" y="700" type="line"/>
      <point x="88" y="700" type="line"/>
      <point x="88" y="0" type="line"/>
      <point x="110" y="0" type="line"/>
      <point x="40" y="-50"/>
      <point x="11" y="-91"/>
      <point x="11" y="-140" type="curve" smooth="yes"/>
      <point x="11" y="-195"/>
      <point x="53" y="-231"/>
    </contour>
  </outline>
</glyph>
<glyph name="iogonek" format="2">
  <advance width="222"/>
  <unicode hex="012F"/>
  <outline>
    <contour>
      <point x="111" y="609" type="curve" smooth="yes"/>
      <point x="140" y="609"/>
      <point x="164" y="633"/>
      <point x="164" y="661" type="curve" smooth="yes"/>
      <point x="164" y="689"/>
      <point x="140" y="713"/>
      <point x="111" y="713" type="curve" smooth="yes"/>
      <point x="82" y="713"/>
      <point x="58" y="689"/>
      <point x="58" y="661" type="curve" smooth="yes"/>
      <point x="58" y="633"/>
      <point x="82" y="609"/>
    </contour>
    <contour>
      <point x="99" y="-231" type="curve" smooth="yes"/>
      <point x="126" y="-231"/>
      <point x="153" y="-224"/>
      <point x="172" y="-212" type="curve"/>
      <point x="158" y="-173" type="line"/>
      <point x="146" y="-181"/>
      <point x="127" y="-185"/>
      <point x="110" y="-185" type="curve" smooth="yes"/>
      <point x="68" y="-185"/>
      <point x="43" y="-164"/>
      <point x="43" y="-128" type="curve" smooth="yes"/>
      <point x="43" y="-87"/>
      <point x="75" y="-47"/>
      <point x="147" y="0" type="curve"/>
      <point x="147" y="488" type="line"/>
      <point x="74" y="488" type="line"/>
      <point x="74" y="0" type="line"/>
      <point x="92" y="0" type="line"/>
      <point x="22" y="-50"/>
      <point x="-7" y="-91"/>
      <point x="-7" y="-140" type="curve" smooth="yes"/>
      <point x="-7" y="-195"/>
      <point x="35" y="-231"/>
    </contour>
  </outline>
</glyph>
<glyph name="dotlessi" format="2">
  <advance width="223"/>
  <unicode hex="0131"/>
  <anchor x="112" y="488" name="top"/>
  <anchor x="148" y="0" name="bottom"/>
  <outline>
    <contour>
      <point x="75" y="0" type="line"/>
      <point x="148" y="0" type="line"/>
      <point x="148" y="488" type="line"/>
      <point x="75" y="488" type="line"/>
    </contour>
  </outline>
</glyph>
<glyph name="lacute" format="2">
  <advance width="223"/>
  <unicode hex="013A"/>
  <outline>
    <contour>
      <point x="75" y="0" type="line"/>
      <point x="148" y="0" type="line"/>
      <point x="148" y="727" type="line"/>
      <point x="75" y="727" type="line"/>
    </contour>
    <contour>
      <point x="78" y="795" type="line"/>
      <point x="145" y="795" type="line"/>
      <point x="289" y="917" type="line"/>
      <point x="190" y="917" type="line"/>
    </contour>
  </outline>
</glyph>
<glyph name="Eng" format="2">
  <advance width="739"/>
  <unicode hex="014A"/>
  <outline>
    <contour>
      <point x="527" y="-219" type="curve" smooth="yes"/>
      <point x="607" y="-219"/>
      <point x="650" y="-173"/>
      <point x="650" y="-94" type="curve" smooth="yes"/>
      <point x="650" y="700" type="line"/>
      <point x="577" y="700" type="line"/>
      <point x="578" y="123" type="line"/>
      <point x="169" y="700" type="line"/>
      <point x="89" y="700" type="line"/>
      <point x="89" y="0" type="line"/>
      <point x="162" y="0" type="line"/>
      <point x="161" y="590" type="line"/>
      <point x="579" y="1" type="line"/>
      <point x="579" y="-87" type="line" smooth="yes"/>
      <point x="579" y="-135"/>
      <point x="561" y="-155"/>
      <point x="518" y="-155" type="curve" smooth="yes"/>
      <point x="503" y="-155"/>
      <point x="493" y="-154"/>
      <point x="482" y="-151" type="curve"/>
      <point x="482" y="-213" type="line"/>
      <point x="495" y="-216"/>
      <point x="511" y="-219"/>
    </contour>
  </outline>
</glyph>
<glyph name="OE" format="2">
  <advance width="1060"/>
  <unicode hex="0152"/>
  <outline>
    <contour>
      <point x="399" y="0" type="curve" smooth="yes"/>
      <point x="1012" y="0" type="line"/>
      <point x="1012" y="68" type="line"/>
      <point x="579" y="68" type="line"/>
      <point x="657" y="124"/>
      <point x="708" y="216"/>
      <point x="717" y="320" type="curve"/>
      <point x="890" y="320" type="line"/>
      <point x="890" y="387" type="line"/>
      <point x="716" y="387" type="line"/>
      <point x="706" y="489"/>
      <point x="655" y="578"/>
      <point x="578" y="632" type="curve"/>
      <point x="1012" y="632" type="line"/>
      <point x="1012" y="700" type="line"/>
      <point x="399" y="700" type="line" smooth="yes"/>
      <point x="204" y="700"/>
      <point x="56" y="549"/>
      <point x="56" y="350" type="curve" smooth="yes"/>
      <point x="56" y="151"/>
      <point x="204" y="0"/>
    </contour>
    <contour>
      <point x="389" y="69" type="curve" smooth="yes"/>
      <point x="244" y="69"/>
      <point x="133" y="191"/>
      <point x="133" y="350" type="curve" smooth="yes"/>
      <point x="133" y="509"/>
      <point x="244" y="631"/>
      <point x="389" y="631" type="curve" smooth="yes"/>
      <point x="534" y="631"/>
      <point x="645" y="509"/>
      <point x="645" y="350" type="curve" smooth="yes"/>
      <point x="645" y="191"/>
      <point x="534" y="69"/>
    </contour>
  </outline>
</glyph>
<glyph name="oe" format="2">
  <advance width="960"/>
  <unicode hex="0153"/>
  <outline>
    <contour>
      <point x="290" y="-8" type="curve" smooth="yes"/>
      <point x="379" y="-8"/>
      <point x="453" y="41"/>
      <point x="492" y="117" type="curve"/>
      <point x="531" y="40"/>
      <point x="607" y="-10"/>
      <point x="698" y="-10" type="curve" smooth="yes"/>
      <point x="766" y="-10"/>
      <point x="825" y="11"/>
      <point x="881" y="55" type="curve"/>
      <point x="835" y="104" type="line"/>
      <point x="802" y="73"/>
      <point x="752" y="54"/>
      <point x="701" y="54" type="curve" smooth="yes"/>
      <point x="608" y="54"/>
      <point x="534" y="128"/>
      <point x="527" y="228" type="curve"/>
      <point x="910" y="228" type="line"/>
      <point x="910" y="250" type="line" smooth="yes"/>
      <point x="910" y="390"/>
      <point x="814" y="496"/>
      <point x="686" y="496" type="curve" smooth="yes"/>
      <point x="601" y="496"/>
      <point x="529" y="447"/>
      <point x="491" y="372" type="curve"/>
      <point x="452" y="447"/>
      <point x="378" y="496"/>
      <point x="290" y="496" type="curve" smooth="yes"/>
      <point x="155" y="496"/>
      <point x="53" y="388"/>
      <point x="53" y="244" type="curve" smooth="yes"/>
      <point x="53" y="100"/>
      <point x="155" y="-8"/>
    </contour>
    <contour>
      <point x="290" y="56" type="curve" smooth="yes"/>
      <point x="195" y="56"/>
      <point x="125" y="137"/>
      <point x="125" y="244" type="curve" smooth="yes"/>
      <point x="125" y="351"/>
      <point x="195" y="432"/>
      <point x="290" y="432" type="curve" smooth="yes"/>
      <point x="385" y="432"/>
      <point x="455" y="351"/>
      <point x="455" y="244" type="curve" smooth="yes"/>
      <point x="455" y="137"/>
      <point x="385" y="56"/>
    </contour>
    <contour>
      <point x="529" y="280" type="line"/>
      <point x="542" y="370"/>
      <point x="604" y="433"/>
      <point x="685" y="433" type="curve" smooth="yes"/>
      <point x="765" y="433"/>
      <point x="827" y="368"/>
      <point x="838" y="280" type="curve"/>
    </contour>
  </outline>
</glyph>
<glyph name="scedilla" format="2">
  <advance width="452"/>
  <unicode hex="015F"/>
  <outline>
    <contour>
      <point x="218" y="-239" type="curve" smooth="yes"/>
      <point x="283" y="-239"/>
      <point x="329" y="-200"/>
      <point x="329" y="-146" type="curve" smooth="yes"/>
      <point x="329" y="-99"/>
      <point x="291" y="-69"/>
      <point x="232" y="-66" type="curve"/>
      <point x="245" y="-9" type="line"/>
      <point x="343" y="-2"/>
      <point x="416" y="61"/>
      <point x="416" y="142" type="curve" smooth="yes"/>
      <point x="416" y="214"/>
      <point x="372" y="255"/>
      <point x="274" y="273" type="curve" smooth="yes"/>
      <point x="192" y="288" type="line" smooth="yes"/>
      <point x="129" y="299"/>
      <point x="108" y="318"/>
      <point x="108" y="358" type="curve" smooth="yes"/>
      <point x="108" y="406"/>
      <point x="150" y="436"/>
      <point x="214" y="436" type="curve" smooth="yes"/>
      <point x="266" y="436"/>
      <point x="316" y="420"/>
      <point x="367" y="384" type="curve"/>
      <point x="403" y="435" type="line"/>
      <point x="341" y="477"/>
      <point x="284" y="496"/>
      <point x="217" y="496" type="curve" smooth="yes"/>
      <point x="114" y="496"/>
      <point x="41" y="437"/>
      <point x="41" y="353" type="curve" smooth="yes"/>
      <point x="41" y="282"/>
      <point x="84" y="242"/>
      <point x="179" y="225" type="curve" smooth="yes"/>
      <point x="259" y="211" type="line" smooth="yes"/>
      <point x="321" y="199"/>
      <point x="347" y="178"/>
      <point x="347" y="138" type="curve" smooth="yes"/>
      <point x="347" y="86"/>
      <point x="295" y="49"/>
      <point x="224" y="49" type="curve" smooth="yes"/>
      <point x="172" y="49"/>
      <point x="125" y="67"/>
      <point x="67" y="110" type="curve"/>
      <point x="28" y="62" type="line"/>
      <point x="71" y="20"/>
      <point x="132" y="-5"/>
      <point x="203" y="-9" type="curve"/>
      <point x="180" y="-99" type="line"/>
      <point x="209" y="-99" type="line" smooth="yes"/>
      <point x="254" y="-99"/>
      <point x="280" y="-117"/>
      <point x="280" y="-148" type="curve" smooth="yes"/>
      <point x="280" y="-180"/>
      <point x="256" y="-200"/>
      <point x="215" y="-200" type="curve" smooth="yes"/>
      <point x="186" y="-200"/>
      <point x="159" y="-190"/>
      <point x="136" y="-171" type="curve"/>
      <point x="108" y="-203" type="line"/>
      <point x="135" y="-227"/>
      <point x="173" y="-239"/>
    </contour>
  </outline>
</glyph>
<glyph name="Tcedilla" format="2">
  <advance width="617"/>
  <unicode hex="0162"/>
  <outline>
    <contour>
      <point x="300" y="-239" type="curve" smooth="yes"/>
      <point x="365" y="-239"/>
      <point x="411" y="-200"/>
      <point x="411" y="-146" type="curve" smooth="yes"/>
      <point x="411" y="-99"/>
      <point x="373" y="-69"/>
      <point x="314" y="-66" type="curve"/>
      <point x="329" y="0" type="line"/>
      <point x="347" y="0" type="line"/>
      <point x="347" y="632" type="line"/>
      <point x="589" y="632" type="line"/>
      <point x="589" y="700" type="line"/>
      <point x="28" y="700" type="line"/>
      <point x="28" y="632" type="line"/>
      <point x="270" y="632" type="line"/>
      <point x="270" y="0" type="line"/>
      <point x="287" y="0" type="line"/>
      <point x="262" y="-99" type="line"/>
      <point x="291" y="-99" type="line" smooth="yes"/>
      <point x="336" y="-99"/>
      <point x="362" y="-117"/>
      <point x="362" y="-148" type="curve" smooth="yes"/>
      <point x="362" y="-180"/>
      <point x="338" y="-200"/>
      <point x="297" y="-200" type="curve" smooth="yes"/>
      <point x="268" y="-200"/>
      <point x="241" y="-190"/>
      <point x="218" y="-171" type="curve"/>
      <point x="190" y="-203" type="line"/>
      <point x="217" y="-227"/>
      <point x="255" y="-239"/>
    </contour>
  </outline>
</glyph>
<glyph name="tcedilla" format="2">
  <advance width="378"/>
  <unicode hex="0163"/>
  <outline>
    <contour>
      <point x="226" y="-239" type="curve" smooth="yes"/>
      <point x="291" y="-239"/>
      <point x="337" y="-200"/>
      <point x="337" y="-146" type="curve" smooth="yes"/>
      <point x="337" y="-99"/>
      <point x="299" y="-69"/>
      <point x="240" y="-66" type="curve"/>
      <point x="253" y="-10" type="line"/>
      <point x="255" y="-10"/>
      <point x="258" y="-10"/>
      <point x="261" y="-10" type="curve" smooth="yes"/>
      <point x="289" y="-10"/>
      <point x="319" y="-6"/>
      <point x="346" y="3" type="curve"/>
      <point x="346" y="68" type="line"/>
      <point x="319" y="58"/>
      <point x="302" y="55"/>
      <point x="277" y="55" type="curve" smooth="yes"/>
      <point x="226" y="55"/>
      <point x="206" y="76"/>
      <point x="206" y="128" type="curve" smooth="yes"/>
      <point x="206" y="428" type="line"/>
      <point x="346" y="428" type="line"/>
      <point x="346" y="488" type="line"/>
      <point x="206" y="488" type="line"/>
      <point x="206" y="639" type="line"/>
      <point x="133" y="622" type="line"/>
      <point x="133" y="488" type="line"/>
      <point x="32" y="488" type="line"/>
      <point x="32" y="428" type="line"/>
      <point x="133" y="428" type="line"/>
      <point x="133" y="109" type="line" smooth="yes"/>
      <point x="133" y="48"/>
      <point x="160" y="10"/>
      <point x="212" y="-4" type="curve"/>
      <point x="188" y="-99" type="line"/>
      <point x="217" y="-99" type="line" smooth="yes"/>
      <point x="262" y="-99"/>
      <point x="288" y="-117"/>
      <point x="288" y="-148" type="curve" smooth="yes"/>
      <point x="288" y="-180"/>
      <point x="264" y="-200"/>
      <point x="223" y="-200" type="curve" smooth="yes"/>
      <point x="194" y="-200"/>
      <point x="167" y="-190"/>
      <point x="144" y="-171" type="curve"/>
      <point x="116" y="-203" type="line"/>
      <point x="143" y="-227"/>
      <point x="181" y="-239"/>
    </contour>
  </outline>
</glyph>
<glyph name="Tbar" format="2">
  <advance width="617"/>
  <unicode hex="0166"/>
  <outline>
    <contour>
      <point x="270" y="0" type="line"/>
      <point x="347" y="0" type="line"/>
      <point x="347" y="312" type="line"/>
      <point x="501" y="312" type="line"/>
      <point x="501" y="373" type="line"/>
      <point x="347" y="373" type="line"/>
      <point x="347" y="632" type="line"/>
      <point x="589" y="632" type="line"/>
      <point x="589" y="700" type="line"/>
      <point x="28" y="700" type="line"/>
      <point x="28" y="632" type="line"/>
      <point x="270" y="632" type="line"/>
      <point x="270" y="373" type="line"/>
      <point x="116" y="373" type="line"/>
      <point x="116" y="312" type="line"/>
      <point x="270" y="312" type="line"/>
    </contour>
  </outline>
</glyph>
<glyph name="Uogonek" format="2">
  <advance width="712"/>
  <unicode hex="0172"/>
  <outline>
    <contour>
      <point x="394" y="-231" type="curve" smooth="yes"/>
      <point x="421" y="-231"/>
      <point x="448" y="-224"/>
      <point x="467" y="-212" type="curve"/>
      <point x="453" y="-173" type="line"/>
      <point x="441" y="-181"/>
      <point x="422" y="-185"/>
      <point x="405" y="-185" type="curve" smooth="yes"/>
      <point x="363" y="-185"/>
      <point x="338" y="-164"/>
      <point x="338" y="-128" type="curve" smooth="yes"/>
      <point x="338" y="-87"/>
      <point x="370" y="-47"/>
      <point x="442" y="0" type="curve"/>
      <point x="564" y="33"/>
      <point x="637" y="141"/>
      <point x="637" y="296" type="curve" smooth="yes"/>
      <point x="637" y="700" type="line"/>
      <point x="560" y="700" type="line"/>
      <point x="560" y="296" type="line" smooth="yes"/>
      <point x="560" y="152"/>
      <point x="480" y="59"/>
      <point x="356" y="59" type="curve" smooth="yes"/>
      <point x="232" y="59"/>
      <point x="152" y="152"/>
      <point x="152" y="296" type="curve" smooth="yes"/>
      <point x="152" y="700" type="line"/>
      <point x="75" y="700" type="line"/>
      <point x="75" y="296" type="line" smooth="yes"/>
      <point x="75" y="100"/>
      <point x="192" y="-19"/>
      <point x="373" y="-11" type="curve"/>
      <point x="313" y="-56"/>
      <point x="288" y="-95"/>
      <point x="288" y="-140" type="curve" smooth="yes"/>
      <point x="288" y="-195"/>
      <point x="330" y="-231"/>
    </contour>
  </outline>
</glyph>
<glyph name="dotlessj" format="2">
  <advance width="223"/>
  <unicode hex="0237"/>
  <anchor x="112" y="488" name="top"/>
  <outline>
    <contour>
      <point x="25" y="-219" type="curve" smooth="yes"/>
      <point x="104" y="-219"/>
      <point x="148" y="-173"/>
      <point x="148" y="-94" type="curve" smooth="yes"/>
      <point x="148" y="488" type="line"/>
      <point x="75" y="488" type="line"/>
      <point x="75" y="-90" type="line" smooth="yes"/>
      <point x="75" y="-135"/>
      <point x="58" y="-154"/>
      <point x="16" y="-154" type="curve" smooth="yes"/>
      <point x="2" y="-154"/>
      <point x="-8" y="-153"/>
      <point x="-20" y="-150" type="curve"/>
      <point x="-20" y="-213" type="line"/>
      <point x="-7" y="-216"/>
      <point x="9" y="-219"/>
    </contour>
  </outline>
</glyph>
<glyph name="emdash" format="2">
  <advance width="692"/>
  <unicode hex="2014"/>
  <outline>
    <contour>
      <point x="61" y="250" type="line"/>
      <point x="631" y="250" type="line"/>
      <point x="631" y="313" type="line"/>
      <point x="61" y="313" type="line"/>
    </contour>
  </outline>
</glyph>
<glyph name="bullet" format="2">
  <advance width="342"/>
  <unicode hex="2022"/>
  <outline>
    <contour>
      <point x="171" y="252" type="curve" smooth="yes"/>
      <point x="225" y="252"/>
      <point x="271" y="296"/>
      <point x="271" y="353" type="curve" smooth="yes"/>
      <point x="271" y="410"/>
      <point x="225" y="454"/>
      <point x="171" y="454" type="curve" smooth="yes"/>
      <point x="117" y="454"/>
      <point x="71" y="410"/>
      <point x="71" y="353" type="curve" smooth="yes"/>
      <point x="71" y="296"/>
      <point x="117" y="252"/>
    </contour>
  </outline>
</glyph>
<glyph name="guilsinglleft" format="2">
  <advance width="401"/>
  <unicode hex="2039"/>
  <outline>
    <contour>
      <point x="267" y="0" type="line"/>
      <point x="347" y="0" type="line"/>
      <point x="127" y="247" type="line"/>
      <point x="344" y="488" type="line"/>
      <point x="267" y="488" type="line"/>
      <point x="44" y="245" type="line"/>
    </contour>
  </outline>
</glyph>
<glyph name="fraction" format="2">
  <advance width="578"/>
  <unicode hex="2044"/>
  <outline>
    <contour>
      <point x="32" y="0" type="line"/>
      <point x="89" y="0" type="line"/>
      <point x="483" y="700" type="line"/>
      <point x="425" y="700" type="line"/>
    </contour>
  </outline>
</glyph>
<glyph name="uni2070" format="2">
  <advance width="350"/>
  <unicode hex="2070"/>
  <outline>
    <contour>
      <point x="175" y="345" type="curve" smooth="yes"/>
      <point x="262" y="345"/>
      <point x="321" y="418"/>
      <point x="321" y="525" type="curve" smooth="yes"/>
      <point x="321" y="632"/>
      <point x="262" y="705"/>
      <point x="175" y="705" type="curve" smooth="yes"/>
      <point x="88" y="705"/>
      <point x="29" y="632"/>
      <point x="29" y="525" type="curve" smooth="yes"/>
      <point x="29" y="418"/>
      <point x="88" y="345"/>
    </contour>
    <contour>
      <point x="175" y="390" type="curve" smooth="yes"/>
      <point x="117" y="390"/>
      <point x="79" y="442"/>
      <point x="79" y="525" type="curve" smooth="yes"/>
      <point x="79" y="608"/>
      <point x="117" y="660"/>
      <point x="175" y="660" type="curve" smooth="yes"/>
      <point x="233" y="660"/>
      <point x="271" y="608"/>
      <point x="271" y="525" type="curve" smooth="yes"/>
      <point x="271" y="442"/>
      <point x="233" y="390"/>
    </contour>
  </outline>
</glyph>
<glyph name="uni2075" format="2">
  <advance width="309"/>
  <unicode hex="2075"/>
  <outline>
    <contour>
      <point x="147" y="345" type="curve"/>
      <point x="228" y="345"/>
      <point x="282" y="391"/>
      <point x="282" y="460" type="curve" smooth="yes"/>
      <point x="282" y="523"/>
      <point x="232" y="566"/>
      <point x="154" y="567" type="curve" smooth="yes"/>
      <point x="130" y="567"/>
      <point x="107" y="562"/>
      <point x="86" y="553" type="curve"/>
      <point x="90" y="658" type="line"/>
      <point x="263" y="658" type="line"/>
      <point x="263" y="700" type="line"/>
      <point x="48" y="700" type="line"/>
      <point x="40" y="523" type="line"/>
      <point x="72" y="513" type="line"/>
      <point x="99" y="523"/>
      <point x="122" y="528"/>
      <point x="148" y="528" type="curve" smooth="yes"/>
      <point x="199" y="528"/>
      <point x="230" y="500"/>
      <point x="230" y="459" type="curve" smooth="yes"/>
      <point x="230" y="417"/>
      <point x="196" y="387"/>
      <point x="146" y="387" type="curve"/>
      <point x="115" y="387"/>
      <point x="86" y="398"/>
      <point x="48" y="422" type="curve"/>
      <point x="23" y="382" type="line"/>
      <point x="63" y="356"/>
      <point x="100" y="345"/>
    </contour>
  </outline>
</glyph>
<glyph name="uni2076" format="2">
  <advance width="326"/>
  <unicode hex="2076"/>
  <outline>
    <contour>
      <point x="175" y="345" type="curve" smooth="yes"/>
      <point x="248" y="345"/>
      <point x="301" y="394"/>
      <point x="301" y="460" type="curve" smooth="yes"/>
      <point x="301" y="522"/>
      <point x="252" y="565"/>
      <point x="183" y="565" type="curve" smooth="yes"/>
      <point x="142" y="565"/>
      <point x="103" y="547"/>
      <point x="79" y="518" type="curve"/>
      <point x="79" y="605"/>
      <point x="121" y="659"/>
      <point x="192" y="659" type="curve" smooth="yes"/>
      <point x="212" y="659"/>
      <point x="239" y="651"/>
      <point x="263" y="639" type="curve"/>
      <point x="284" y="682" type="line"/>
      <point x="256" y="697"/>
      <point x="228" y="704"/>
      <point x="197" y="704" type="curve" smooth="yes"/>
      <point x="95" y="704"/>
      <point x="28" y="629"/>
      <point x="28" y="515" type="curve" smooth="yes"/>
      <point x="28" y="414"/>
      <point x="88" y="345"/>
    </contour>
    <contour>
      <point x="169" y="526" type="curve" smooth="yes"/>
      <point x="217" y="526"/>
      <point x="250" y="498"/>
      <point x="250" y="459" type="curve" smooth="yes"/>
      <point x="250" y="419"/>
      <point x="219" y="389"/>
      <point x="176" y="389" type="curve" smooth="yes"/>
      <point x="127" y="389"/>
      <point x="91" y="426"/>
      <point x="81" y="483" type="curve"/>
      <point x="104" y="511"/>
      <point x="136" y="526"/>
    </contour>
  </outline>
</glyph>
<glyph name="uni2077" format="2">
  <advance width="298"/>
  <unicode hex="2077"/>
  <outline>
    <contour>
      <point x="57" y="350" type="line"/>
      <point x="117" y="350" type="line"/>
      <point x="286" y="661" type="line"/>
      <point x="286" y="700" type="line"/>
      <point x="17" y="700" type="line"/>
      <point x="17" y="655" type="line"/>
      <point x="229" y="655" type="line"/>
    </contour>
  </outline>
</glyph>
<glyph name="uni2081" format="2">
  <advance width="166"/>
  <unicode hex="2081"/>
  <outline>
    <contour>
      <point x="84" y="0" type="line"/>
      <point x="135" y="0" type="line"/>
      <point x="135" y="350" type="line"/>
      <point x="103" y="350" type="line"/>
      <point x="21" y="315" type="line"/>
      <point x="21" y="270" type="line"/>
      <point x="84" y="296" type="line"/>
    </contour>
  </outline>
</glyph>
<glyph name="uni2083" format="2">
  <advance width="313"/>
  <unicode hex="2083"/>
  <outline>
    <contour>
      <point x="151" y="-5" type="curve"/>
      <point x="229" y="-5"/>
      <point x="284" y="37"/>
      <point x="284" y="97" type="curve"/>
      <point x="284" y="139"/>
      <point x="250" y="170"/>
      <point x="199" y="179" type="curve"/>
      <point x="244" y="191"/>
      <point x="272" y="222"/>
      <point x="272" y="259" type="curve"/>
      <point x="272" y="316"/>
      <point x="221" y="356"/>
      <point x="151" y="356" type="curve"/>
      <point x="106" y="356"/>
      <point x="61" y="339"/>
      <point x="25" y="308" type="curve"/>
      <point x="56" y="272" type="line"/>
      <point x="89" y="299"/>
      <point x="117" y="310"/>
      <point x="150" y="310" type="curve"/>
      <point x="190" y="310"/>
      <point x="220" y="287"/>
      <point x="220" y="255" type="curve"/>
      <point x="220" y="220"/>
      <point x="189" y="195"/>
      <point x="147" y="195" type="curve"/>
      <point x="119" y="195" type="line"/>
      <point x="119" y="155" type="line"/>
      <point x="152" y="155" type="line"/>
      <point x="201" y="155"/>
      <point x="233" y="133"/>
      <point x="233" y="98" type="curve"/>
      <point x="233" y="63"/>
      <point x="199" y="40"/>
      <point x="151" y="40" type="curve"/>
      <point x="117" y="40"/>
      <point x="85" y="51"/>
      <point x="50" y="78" type="curve"/>
      <point x="20" y="40" type="line"/>
      <point x="58" y="10"/>
      <point x="102" y="-5"/>
    </contour>
  </outline>
</glyph>
<glyph name="uni2084" format="2">
  <advance width="329"/>
  <unicode hex="2084"/>
  <outline>
    <contour>
      <point x="219" y="0" type="line"/>
      <point x="270" y="0" type="line"/>
      <point x="270" y="88" type="line"/>
      <point x="312" y="88" type="line"/>
      <point x="312" y="130" type="line"/>
      <point x="270" y="130" type="line"/>
      <point x="270" y="350" type="line"/>
      <point x="213" y="350" type="line"/>
      <point x="22" y="129" type="line"/>
      <point x="22" y="88" type="line"/>
      <point x="219" y="88" type="line"/>
    </contour>
    <contour>
      <point x="76" y="130" type="line"/>
      <point x="219" y="295" type="line"/>
      <point x="219" y="130" type="line"/>
    </contour>
  </outline>
</glyph>
<glyph name="uni2088" format="2">
  <advance width="327"/>
  <unicode hex="2088"/>
  <outline>
    <contour>
      <point x="164" y="-5" type="curve" smooth="yes"/>
      <point x="241" y="-5"/>
      <point x="297" y="37"/>
      <point x="297" y="95" type="curve" smooth="yes"/>
      <point x="297" y="136"/>
      <point x="266" y="170"/>
      <point x="220" y="182" type="curve"/>
      <point x="259" y="194"/>
      <point x="285" y="225"/>
      <point x="285" y="262" type="curve" smooth="yes"/>
      <point x="285" y="315"/>
      <point x="232" y="356"/>
      <point x="163" y="356" type="curve" smooth="yes"/>
      <point x="95" y="356"/>
      <point x="43" y="316"/>
      <point x="43" y="262" type="curve" smooth="yes"/>
      <point x="43" y="225"/>
      <point x="68" y="194"/>
      <point x="106" y="182" type="curve"/>
      <point x="61" y="170"/>
      <point x="30" y="136"/>
      <point x="30" y="95" type="curve" smooth="yes"/>
      <point x="30" y="37"/>
      <point x="86" y="-5"/>
    </contour>
    <contour>
      <point x="164" y="202" type="curve" smooth="yes"/>
      <point x="123" y="202"/>
      <point x="93" y="226"/>
      <point x="93" y="258" type="curve" smooth="yes"/>
      <point x="93" y="290"/>
      <point x="123" y="315"/>
      <point x="164" y="315" type="curve" smooth="yes"/>
      <point x="203" y="315"/>
      <point x="234" y="290"/>
      <point x="234" y="258" type="curve" smooth="yes"/>
      <point x="234" y="226"/>
      <point x="203" y="202"/>
    </contour>
    <contour>
      <point x="164" y="37" type="curve" smooth="yes"/>
      <point x="117" y="37"/>
      <point x="81" y="64"/>
      <point x="81" y="99" type="curve" smooth="yes"/>
      <point x="81" y="135"/>
      <point x="116" y="162"/>
      <point x="164" y="162" type="curve" smooth="yes"/>
      <point x="211" y="162"/>
      <point x="246" y="135"/>
      <point x="246" y="99" type="curve" smooth="yes"/>
      <point x="246" y="64"/>
      <point x="211" y="37"/>
    </contour>
  </outline>
</glyph>
<glyph name="Euro" format="2">
  <advance width="729"/>
  <unicode hex="20AC"/>
  <outline>
    <contour>
      <point x="439" y="-11" type="curve" smooth="yes"/>
      <point x="533" y="-11"/>
      <point x="613" y="31"/>
      <point x="672" y="114" type="curve"/>
      <point x="619" y="155" type="line"/>
      <point x="573" y="88"/>
      <point x="511" y="53"/>
      <point x="437" y="53" type="curve" smooth="yes"/>
      <point x="325" y="53"/>
      <point x="242" y="132"/>
      <point x="215" y="256" type="curve"/>
      <point x="421" y="256" type="line"/>
      <point x="438" y="310" type="line"/>
      <point x="207" y="310" type="line"/>
      <point x="206" y="323"/>
      <point x="205" y="336"/>
      <point x="205" y="350" type="curve" smooth="yes"/>
      <point x="205" y="364"/>
      <point x="206" y="377"/>
      <point x="207" y="390" type="curve"/>
      <point x="466" y="390" type="line"/>
      <point x="484" y="444" type="line"/>
      <point x="215" y="444" type="line"/>
      <point x="242" y="568"/>
      <point x="325" y="647"/>
      <point x="437" y="647" type="curve" smooth="yes"/>
      <point x="511" y="647"/>
      <point x="573" y="612"/>
      <point x="619" y="545" type="curve"/>
      <point x="672" y="586" type="line"/>
      <point x="613" y="669"/>
      <point x="533" y="711"/>
      <point x="439" y="711" type="curve" smooth="yes"/>
      <point x="290" y="711"/>
      <point x="175" y="604"/>
      <point x="143" y="444" type="curve"/>
      <point x="44" y="444" type="line"/>
      <point x="44" y="390" type="line"/>
      <point x="136" y="390" type="line"/>
      <point x="135" y="377"/>
      <point x="134" y="364"/>
      <point x="134" y="350" type="curve" smooth="yes"/>
      <point x="134" y="336"/>
      <point x="135" y="323"/>
      <point x="136" y="310" type="curve"/>
      <point x="44" y="310" type="line"/>
      <point x="44" y="256" type="line"/>
      <point x="143" y="256" type="line"/>
      <point x="175" y="96"/>
      <point x="290" y="-11"/>
    </contour>
  </outline>
</glyph>
<glyph name="trademark" format="2">
  <advance width="672"/>
  <unicode hex="2122"/>
  <outline>
    <contour>
      <point x="323" y="421" type="line"/>
      <point x="363" y="421" type="line"/>
      <point x="362" y="643" type="line"/>
      <point x="459" y="440" type="line"/>
      <point x="556" y="645" type="line"/>
      <point x="554" y="421" type="line"/>
      <point x="595" y="421" type="line"/>
      <point x="595" y="700" type="line"/>
      <point x="542" y="700" type="line"/>
      <point x="459" y="519" type="line"/>
      <point x="376" y="700" type="line"/>
      <point x="323" y="700" type="line"/>
    </contour>
    <contour>
      <point x="140" y="421" type="line"/>
      <point x="182" y="421" type="line"/>
      <point x="182" y="662" type="line"/>
      <point x="276" y="662" type="line"/>
      <point x="276" y="700" type="line"/>
      <point x="47" y="700" type="line"/>
      <point x="47" y="662" type="line"/>
      <point x="140" y="662" type="line"/>
    </contour>
  </outline>
</glyph>
<glyph name="uni2191" format="2">
  <advance width="572"/>
  <unicode hex="2191"/>
  <outline>
    <contour>
      <point x="251" y="0" type="line"/>
      <point x="319" y="0" type="line"/>
      <point x="319" y="614" type="line"/>
      <point x="485" y="395" type="line"/>
      <point x="532" y="432" type="line"/>
      <point x="286" y="750" type="line"/>
      <point x="40" y="432" type="line"/>
      <point x="88" y="394" type="line"/>
      <point x="251" y="609" type="line"/>
    </contour>
  </outline>
</glyph>
<glyph name="uni2215" format="2">
  <advance width="578"/>
  <unicode hex="2215"/>
  <outline>
    <contour>
      <point x="32" y="0" type="line"/>
      <point x="89" y="0" type="line"/>
      <point x="483" y="700" type="line"/>
      <point x="425" y="700" type="line"/>
    </contour>
  </outline>
</glyph>
<glyph name="uni0304" format="2">
  <anchor x="300" y="488" name="_top"/>
  <outline>
    <contour>
      <point x="164" y="611" type="line"/>
      <point x="436" y="611" type="line"/>
      <point x="436" y="663" type="line"/>
      <point x="164" y="663" type="line"/>
    </contour>
  </outline>
</glyph>
<glyph name="uni0307" format="2">
  <anchor x="300" y="488" name="_top"/>
  <outline>
    <contour>
      <point x="300" y="609" type="curve" smooth="yes"/>
      <point x="329" y="609"/>
      <point x="353" y="633"/>
      <point x="353" y="661" type="curve" smooth="yes"/>
      <point x="353" y="689"/>
      <point x="329" y="713"/>
      <point x="300" y="713" type="curve" smooth="yes"/>
      <point x="271" y="713"/>
      <point x="247" y="689"/>
      <point x="247" y="661" type="curve" smooth="yes"/>
      <point x="247" y="633"/>
      <point x="271" y="609"/>
    </contour>
  </outline>
</glyph>
